<?xml version="1.0" encoding="UTF-8"?>
<!DOCTYPE svg PUBLIC "-//W3C//DTD SVG 1.1//EN" "http://www.w3.org/Graphics/SVG/1.1/DTD/svg11.dtd">
<!-- Creator: CorelDRAW 2018 (64-Bit) -->
<svg xmlns="http://www.w3.org/2000/svg" xml:space="preserve" width="2.587in" height="2.587in" version="1.1" style="shape-rendering:geometricPrecision; text-rendering:geometricPrecision; image-rendering:optimizeQuality; fill-rule:evenodd; clip-rule:evenodd"
viewBox="0 0 2587 2587"
 xmlns:xlink="http://www.w3.org/1999/xlink">
 <defs>
  <style type="text/css">
   <![CDATA[
    .fil0 {fill:#010101}
    .fil1 {fill:#020202}
   ]]>
  </style>
 </defs>
 <g id="Layer_x0020_1">
  <metadata id="CorelCorpID_0Corel-Layer"/>
  <g id="_2616395083552">
   <path class="fil0" d="M1213.97 2038.06c69.4,-23.28 93.16,80.85 34.17,100.85 -66.3,22.48 -106.44,-76.61 -34.17,-100.85zm-370.32 -1410.91l772.67 1.13 -1.97 1368.53 -770.56 -0.1 -0.13 -1369.56zm350.34 -64.7c-20.73,1.14 -43.56,2.23 -62.11,0l-23.64 0c-12.56,0 -22.83,-10.27 -22.83,-22.83l0 -0c0,-12.56 10.27,-22.83 22.83,-22.83l243.14 0c12.56,0 22.83,10.27 22.83,22.83l0 0c0,12.56 -10.27,22.83 -22.83,22.83l-24.12 0c-19.81,2.66 -45.18,1.3 -67.28,0l-65.99 0zm-349.56 -99.52c-99.53,33.42 -75.45,141.37 -75.45,255.68l-0.01 1325.2c-0.28,146.39 49.17,151.67 185.07,151.67 94.92,0 615.65,10.3 664.19,-5.72 95.45,-31.5 72.77,-148.88 72.77,-255.55l0.01 -1325.2c0.27,-143.33 -47.62,-151.66 -183.97,-151.66 -94.16,0 -616.88,-9.76 -662.6,5.59z"/>
   <path class="fil0" d="M2277.76 1326.42c-0.6,-153.03 -43.09,-300.12 -122.94,-423.58 -17.84,-27.6 -54.89,-95.73 -89.88,-96.5 -27.7,-0.6 -46.38,21.28 -39.69,50.57 3.03,13.23 27.84,40.46 37.14,53.67 179.63,254.96 178.67,570.85 2.09,828.83 -9.36,13.67 -34.51,41.26 -38.09,52.36 -9.84,30.48 9.35,55.39 38.54,54.67 48.87,-1.2 133.11,-168.74 151.81,-213.96 37.89,-91.67 61.44,-196 61.01,-306.06z"/>
   <path class="fil1" d="M229.91 1326.42c0.3,-297.48 167.25,-439.59 172,-473.98 4.06,-29.39 -20.15,-51.24 -50,-45.04 -39.02,8.1 -122.52,164.27 -145.43,220.02 -173.35,421.76 94.08,818.13 154.77,819.1 26.83,0.43 46.06,-22.34 39.76,-50.59 -3.17,-14.21 -27.46,-39.91 -37.08,-53.72 -84.76,-121.7 -134.17,-253.98 -134.02,-415.79z"/>
   <path class="fil0" d="M470.59 931.23c-35.93,13.99 -90.04,122.63 -108.74,171.37 -27.84,72.62 -44.71,157.16 -41.64,243.83 4.22,119.2 39.8,225.45 100.51,319.06 15.66,24.15 40.36,72.6 80.9,55.59 45.58,-19.13 9.75,-67.26 -4.22,-87.53 -112.78,-163.56 -126,-368.79 -39.22,-548.92 16.81,-34.89 34.24,-57.45 54.07,-85.55 28.11,-39.81 -1.37,-83.54 -41.67,-67.85z"/>
   <path class="fil0" d="M1929.41 930.68c-101.76,32.9 102.15,117.98 94.8,410.83 -3.09,122.93 -41.83,218 -107.94,309.51 -43.19,59.8 38.93,172.7 146.87,-97.11 28.98,-72.44 45.27,-156.99 42.99,-242.44 -2.23,-83.47 -21.51,-162.64 -50.24,-229.95 -21.29,-49.88 -46.23,-91.61 -77.41,-131.91 -10.55,-13.63 -23.25,-27.27 -49.07,-18.93z"/>
   <path class="fil0" d="M589.3 1055.43c-55.14,26.64 -99.51,194.75 -97.25,285.77 1.86,74.76 53.12,279.56 126.79,258.99 62.96,-17.58 -0.91,-94.3 -13.59,-124.14 -92.91,-218.7 40.81,-350.29 41.56,-383.96 0.7,-30.98 -29.9,-50 -57.52,-36.66z"/>
   <path class="fil0" d="M1800.71 1056.2c-73.39,40.01 63.62,96.28 51.34,295.37 -8.87,143.8 -79.62,175.49 -72.01,218.47 4.7,26.52 38.56,42.97 64.12,23.83 19.44,-14.57 55.28,-89.82 66.34,-122.87 18.12,-54.13 26.11,-106.24 23.28,-168.37 -3.18,-69.91 -59.7,-286.43 -133.07,-246.44z"/>
  </g>
 </g>
</svg>
