<?xml version="1.0" encoding="UTF-8"?>
<!DOCTYPE svg PUBLIC "-//W3C//DTD SVG 1.1//EN" "http://www.w3.org/Graphics/SVG/1.1/DTD/svg11.dtd">
<!-- Creator: CorelDRAW 2018 (64-Bit) -->
<svg xmlns="http://www.w3.org/2000/svg" xml:space="preserve" width="2.587in" height="2.587in" version="1.1" style="shape-rendering:geometricPrecision; text-rendering:geometricPrecision; image-rendering:optimizeQuality; fill-rule:evenodd; clip-rule:evenodd"
viewBox="0 0 2587 2587"
 xmlns:xlink="http://www.w3.org/1999/xlink">
 <defs>
  <style type="text/css">
   <![CDATA[
    .fil2 {fill:#010101}
    .fil0 {fill:#020202}
    .fil1 {fill:#030303}
    .fil3 {fill:#050505}
    .fil4 {fill:#060606}
   ]]>
  </style>
 </defs>
 <g id="Layer_x0020_1">
  <metadata id="CorelCorpID_0Corel-Layer"/>
  <g id="_2616392237056">
   <path class="fil0" d="M1932.61 2120.08c-3.5,51.98 -7.46,95.4 -58.71,106.93l-833.71 2.07c-362.99,0 -310.81,52.64 -310.81,-349.06l0 -987.94c0,-512.54 -33.86,-466.19 199.28,-466.18 220.43,0 440.85,0 661.28,0 379.07,0 341.28,-60.93 341.28,314.8 0,220.91 4.41,446.37 -0.43,667.52l62.13 -9.15c-3.94,-239.61 -0.44,-482.17 -0.44,-722.11 0,-124.31 22.35,-235.77 -64.48,-290.52 -62.96,-39.7 -251.67,-21.89 -338.06,-21.89 -241.64,0 -483.4,0.78 -725.02,-0.06 -131.11,-0.46 -196.74,27.61 -197.03,160.72l0.33 1442.44c0,117.3 -23.81,237.46 57.72,298.25 55.72,41.54 259.14,24.07 346.13,24.07l717.05 0.03c140.29,0.39 202.13,-20.04 203.27,-165.12l-59.77 -4.81z"/>
   <path class="fil1" d="M1951.94 1528.14c138.34,-28.88 255.76,79.44 275.8,192.91 26.09,147.75 -78.74,258.52 -197.56,279.73 -293.78,52.42 -406.99,-404.01 -78.24,-472.63zm-258.88 280.19c20.39,148.95 165.85,278.12 342.08,253.56 149.47,-20.83 277.22,-162.56 254.69,-340.05 -19.2,-151.29 -163.32,-278.87 -341.18,-256.13 -150.41,19.23 -280.06,163.87 -255.59,342.62z"/>
   <path class="fil1" d="M607.54 1704.87c6.19,-130.17 5.22,-220.73 -23.61,-340.41 -23.46,-97.39 -46.36,-191.83 -70.27,-287.65 -113.57,-455.16 -127.03,-403.67 94.76,-457.32l-0.44 -60.24c-111.45,12.63 -242.92,44.93 -240.06,165.38 0.86,36.26 217.47,923.97 239.61,980.24z"/>
   <path class="fil1" d="M1198.46 740.71c47.77,-57.17 41.78,-12.77 64.68,-118.1 85.74,20.77 47.8,20.82 132.98,0.64 24.86,91.87 11.98,58.13 65.3,117.46 -42.41,51.68 -46.64,30.22 -63.83,118.74 -88.78,-17.15 -44.03,-20.73 -135.06,-0.06 -20.09,-103.62 -26,-64.43 -64.07,-118.68zm45.25 -174.9c-67.15,23.98 -17.15,60.56 -76.28,118.74 -64.87,63.83 -28.61,81 12.89,123.31 33.67,34.33 5.92,114.93 82.07,113.48 35.68,-0.68 40.51,-18.93 79.13,-13.61 29.52,4.07 47.15,23.9 81.96,9.44 25.35,-10.52 28.76,-27.79 35.92,-59.2 23.28,-102.17 126.05,-73.79 22.89,-184.7 -40.28,-43.31 -8.46,-117.26 -91.08,-111.17 -34.6,2.55 -39.87,20.21 -74.47,13.02 -31.59,-6.57 -38.32,-21.7 -73.01,-9.31z"/>
   <path class="fil2" d="M1772.5 1220.01c-20.8,-24.72 -614.82,-12.38 -692.48,-12.38 -135.56,0 -184.19,-18.87 -169,53.39 45.57,14.51 572.68,6.97 694.83,6.97 21.89,0 220.8,16.4 166.65,-47.98z"/>
   <path class="fil0" d="M1764.86 1409.61c2.26,-10.48 21.28,-7.47 4.07,-49.46 -27.49,-3.44 -827.9,-15.63 -852.06,7.25 -36.54,34.61 7.13,50.78 43.64,50.8l748.92 0.01c30.08,-0.11 34.45,4.35 55.43,-8.59z"/>
   <path class="fil1" d="M1731.04 2020.04c-8.42,-21.03 -28.28,-40.48 -45.51,-59.96 -93.5,-5.48 -729.37,-9.02 -774.24,5.99 -18.38,77.93 80.22,53.66 152.79,53.66l666.95 0.31z"/>
   <path class="fil1" d="M1690.67 1567.07c16.16,-23.24 28.47,-38.37 41.53,-58.97l-747.78 0.43c-48.96,-0.04 -90.39,-6.58 -71.8,52.84 45.82,14.67 687.77,12.33 778.05,5.7z"/>
   <path class="fil0" d="M1645.41 1658.45c-113.74,-0.32 -672.84,-12.19 -733.96,6.48l-3.63 37.22c32.57,27.03 113.62,16.78 172.21,16.78 125.84,-0 475.13,7.71 553.71,-2.13l11.68 -58.35z"/>
   <path class="fil1" d="M1271.24 1869.13c123.98,0 248.11,-0.59 373.69,-0.24l-15.16 -58.59c-90.5,-5.26 -669.69,-8.87 -719.04,5.23l-2.65 37.42c46.61,36.16 280.37,16.19 363.16,16.19z"/>
   <path class="fil3" d="M1948.45 1795.95c-33.36,-18.17 -45.15,-41.49 -84.93,-25.42 -14.81,43.99 13.78,53.29 37.95,69.17 70.34,46.21 53.52,50.75 178.72,-90.87 15.25,-17.25 49.37,-39.22 43.72,-66.7 -17.5,-85.01 -122.47,70.19 -155.5,98.65l-19.97 15.17z"/>
   <path class="fil3" d="M1374.37 979.67c73.31,173.74 146.69,129.7 107.96,60.32 -7.54,-13.49 -12.88,-21.65 -21.48,-34.5l-22.25 -27.43 -64.24 1.61z"/>
   <path class="fil3" d="M1213.53 976.05c-11.34,29.57 -24.78,42.65 -38.12,68.09 -22.5,42.93 8.11,134.74 109.46,-61.98l-71.34 -6.11z"/>
   <path class="fil4" d="M1306.8 761.31c42.58,27.44 67.26,-10.6 46.91,-39.22 -13.18,-18.53 -67.25,-21.72 -46.91,39.22z"/>
  </g>
 </g>
</svg>
