<?xml version="1.0" encoding="UTF-8"?>
<!DOCTYPE svg PUBLIC "-//W3C//DTD SVG 1.1//EN" "http://www.w3.org/Graphics/SVG/1.1/DTD/svg11.dtd">
<!-- Creator: CorelDRAW 2018 (64-Bit) -->
<svg xmlns="http://www.w3.org/2000/svg" xml:space="preserve" width="2.587in" height="2.587in" version="1.1" style="shape-rendering:geometricPrecision; text-rendering:geometricPrecision; image-rendering:optimizeQuality; fill-rule:evenodd; clip-rule:evenodd"
viewBox="0 0 2587 2587"
 xmlns:xlink="http://www.w3.org/1999/xlink">
 <defs>
  <style type="text/css">
   <![CDATA[
    .fil0 {fill:black}
   ]]>
  </style>
 </defs>
 <g id="Layer_x0020_1">
  <metadata id="CorelCorpID_0Corel-Layer"/>
  <g id="_2616395103840">
   <path class="fil0" d="M1375.23 1349.01c-52.72,3.52 -99.84,-6.41 -150.32,-12.15 10.91,-38.59 43.11,-55.78 90.09,-52.47 57.95,4.09 77.48,0.07 60.22,64.61zm-521.29 -83.87c62.58,-29.06 78.63,-76.03 76.26,-160.59 -2.06,-73.46 6.63,-160.09 -0.67,-231.33 -4.63,-45.18 -30.26,-42.1 -28.55,-92.47 3.45,-101.12 43.52,-176.8 108.56,-244.07 83.83,-86.71 229.49,-97.88 377.69,-89.77 240.37,13.16 346.65,109.98 375.65,323.62 8.18,60.23 -21.06,33.35 -28.69,89.78 -8.57,63.39 7.15,305.31 0.08,334.39 -7.81,32.15 -63.29,124.17 -82.27,149.14 -175.03,230.28 -462.67,220.06 -616.06,28.52 39.31,3.45 86.53,2.15 124.5,6.61 49.23,5.78 258.06,93.65 278.83,-31.63 16.91,-101.93 -33.13,-118.72 -124,-124.85 -106.54,-7.19 -112.45,47.75 -159.55,93.32 -74.24,3.71 -251.44,-14.3 -301.78,-50.67zm-10.06 -63.13c-71.91,0.33 -143.79,10.91 -149.74,-41.08 -5.88,-51.39 -2.43,-136.07 -1.73,-190.06 0.76,-58.63 -9.63,-129.66 54.47,-136.74 36.5,-4.03 47.09,-1.53 53.85,-38.2 4.87,-26.41 7.66,-53.34 12.28,-80.57 34.98,-206.51 173.63,-335.92 389.44,-360.95 213.14,-24.73 443.68,-9.11 570.34,169.09 70.99,99.88 61.36,161.46 93,282.28 17.59,67.16 100.58,-15.16 103.94,87.72 1.93,59.04 1.85,126.18 0.74,185.34 -1.63,87.93 20.53,119.02 -74.37,120.28 -101.3,1.34 -100.34,5.82 -101.1,-89.41 -0.51,-63.66 -0.94,-126.62 -0.42,-190.28 0.43,-52.43 -6.98,-41.57 17.35,-73.77 15.53,-20.56 17.04,-43.73 13.55,-71.89 -28.24,-227.67 -139.63,-354.7 -367.53,-382.9 -254.03,-31.44 -459.35,12.93 -557.61,180.6 -42.51,72.55 -88.28,204.42 -40.6,289.05 18.43,32.71 9.69,136.1 8.86,182.33 -1.63,91.14 13.56,106.43 -24.74,159.16zm1078.92 -427.81c-30.4,-191.02 -79.49,-292.06 -188.65,-381.8 -112.94,-92.85 -281.67,-111.14 -460.42,-104.88 -180.43,6.32 -289.36,47.49 -405.5,164.62 -99.98,100.84 -100.98,211.91 -123.29,303.02 -10.32,42.13 -32.76,-5.5 -82.25,56.85 -45.98,57.91 -32.08,171.89 -31.85,256.56 0.28,105.61 -10.59,171.69 93.34,190.17 54.43,9.68 19.29,16.26 87.82,55.89 30.7,17.75 62.42,27.17 99.89,38.39 39.61,11.87 102.39,94.23 151.41,131.74 187.19,143.24 450.69,115.03 604.49,-63.52 36.47,-42.34 89.21,-107.92 108.49,-174.56 54.03,13.08 142.19,27.76 198.17,3.25 59.59,-26.08 56,-81.81 57.39,-155.67 1.23,-65.46 3.68,-152.16 -1.13,-216.21 -5.63,-75 -37.04,-92.23 -107.92,-103.86z"/>
   <path class="fil0" d="M632.56 2156.64c9.74,-183.5 112.9,-322.96 208.5,-395.01 154.85,-116.7 263.59,-112.18 484.33,-111.96 222.48,0.22 330.45,-2.75 483.96,112.32 97.83,73.34 197.36,208.7 208.97,394.73l-1385.76 -0.07zm-61.96 37.89c7.17,34.48 78.02,23.41 112.11,23.41l1203.09 0c192.09,0 199.73,17.14 194.17,-69.85 -17.99,-281.33 -235.07,-518.29 -518.63,-554.85 -79.35,-10.23 -440.95,-8.23 -515.64,7.4 -72.8,15.24 -137.31,42.61 -191.22,76.59 -67.43,42.52 -96.98,73.31 -143.5,124.03 -36.03,39.3 -76.81,105.96 -100.28,167.06 -17.92,46.65 -51.56,171.08 -40.11,226.21z"/>
  </g>
 </g>
</svg>
