<?xml version="1.0" encoding="UTF-8"?>
<!DOCTYPE svg PUBLIC "-//W3C//DTD SVG 1.1//EN" "http://www.w3.org/Graphics/SVG/1.1/DTD/svg11.dtd">
<!-- Creator: CorelDRAW 2018 (64-Bit) -->
<svg xmlns="http://www.w3.org/2000/svg" xml:space="preserve" width="2.587in" height="2.587in" version="1.1" style="shape-rendering:geometricPrecision; text-rendering:geometricPrecision; image-rendering:optimizeQuality; fill-rule:evenodd; clip-rule:evenodd"
viewBox="0 0 2587 2587"
 xmlns:xlink="http://www.w3.org/1999/xlink">
 <defs>
  <style type="text/css">
   <![CDATA[
    .fil0 {fill:#FEFEFE}
   ]]>
  </style>
 </defs>
 <g id="Layer_x0020_1">
  <metadata id="CorelCorpID_0Corel-Layer"/>
  <g id="_2616426857072">
   <path class="fil0" d="M554.56 359.14c91.43,-7.56 212.08,-6.16 304.26,-0.78 97.74,5.69 151.02,44.26 159.56,142.54 7.98,91.9 6.3,214.64 1.27,307.29 -5.47,100.54 -45.44,150.79 -144.99,159.92 -87.1,7.99 -217.52,6.44 -306.43,0.89 -96.19,-6 -150.15,-42.5 -158.54,-145.31 -7.51,-92.18 -6.28,-213.02 -0.74,-305.9 5.91,-98.97 46.54,-150.44 145.61,-158.64zm-288.91 439.86c10.06,353.8 310.36,323.15 584.04,312.77 126.69,-4.8 231.69,-46 285.13,-165.98 40.35,-90.59 31.87,-309.42 27.47,-418.8 -4.93,-122.63 -48.15,-235.9 -166.58,-284.48 -98.72,-40.5 -299.9,-30.72 -417.11,-27.27 -125.27,3.69 -233.37,47.53 -284.87,166.12 -40.76,93.84 -31.28,304.68 -28.07,417.63z"/>
   <path class="fil0" d="M552.48 1496.48c85.28,-8.33 219.45,-6.73 306.44,-1.12 100.02,6.45 150.22,44.5 159.31,143.25 8.16,88.74 7.16,218.7 1.29,308.15 -6.56,99.97 -47.14,150.67 -145.37,158.5 -92.35,7.36 -212.8,6.35 -305.87,0.77 -93.93,-5.63 -149.22,-40.55 -158.3,-142.63 -8.35,-93.93 -5.62,-211.87 -1.27,-306.73 4.6,-100.43 45.83,-150.62 143.76,-160.19zm-286.83 436.27c3.07,125.97 44.65,231.88 162.99,287.33 89.7,42.04 305.5,32.12 415.79,29.3 354.58,-9.09 328.83,-298.14 318.08,-579.35 -2.75,-71.98 -11.23,-129.19 -43.65,-181.78 -27.26,-44.22 -68.02,-82.7 -119.33,-106.64 -89.85,-41.91 -308.13,-33.32 -417.37,-29.15 -122.56,4.67 -237.67,44.13 -287.89,163.35 -41.53,98.6 -31.51,298.31 -28.62,416.94z"/>
   <path class="fil0" d="M2156.06 822.05c-8.02,99.19 -57.97,140.54 -158.79,147.06 -89.47,5.78 -219.42,6.79 -308.18,-1.39 -98.04,-9.02 -137.29,-59.31 -143.26,-159.37 -5.37,-89.9 -6.94,-218.28 1.18,-307.01 8.96,-97.93 60.57,-138.2 160.23,-143.19 93.38,-4.66 214.65,-7.09 307.04,1.41 96.33,8.85 136.76,59.97 142.24,158.22 5.17,92.72 6.97,212.47 -0.46,304.28zm-449.96 -606.31c-121.83,5.97 -229.91,51.15 -277.91,171.16 -36.83,92.08 -29.75,315.2 -24.54,425.78 5.76,122 55.13,227.04 171.88,274.32 91.54,37.07 316.94,29.44 426.28,24.18 139.91,-6.74 234.83,-71.53 273.24,-172.55 35.84,-94.25 29.7,-311.17 24.34,-420.6 -6,-122.38 -54.89,-231.43 -172.06,-277.96 -89.55,-35.55 -313.91,-29.6 -421.24,-24.33z"/>
   <path class="fil0" d="M1679.85 1498.02c85.17,-10.16 215.83,-7.72 303.54,-3.37 100.62,4.99 159.12,35.6 170.96,132.94 10.65,87.57 6.31,214.48 2.99,304.87 -2.5,68 -15.31,124.82 -73.93,155.59 -63.5,33.33 -287.93,22.03 -363.03,18.72 -87.77,-3.87 -158.31,-23.72 -171.76,-130.78 -10.67,-84.86 -7.61,-218.89 -3.51,-306.01 4.88,-103.75 34.66,-160.02 134.75,-171.96zm-275.45 466.99c7.74,135.09 79.96,228.22 185.48,264.59 81.72,28.17 323.76,25.78 420.98,18.5 121.48,-9.11 230.13,-66.22 268.74,-184.89 29.09,-89.39 26.52,-318.44 19.04,-420.79 -9.21,-125.96 -62.8,-226.49 -184.19,-269.7 -85.76,-30.53 -324.2,-25.38 -425.3,-18.8 -121.61,7.91 -225.08,65.04 -266.23,184.61 -31.11,90.43 -24.5,322.28 -18.53,426.48z"/>
  </g>
 </g>
</svg>
