<?xml version="1.0" encoding="UTF-8"?>
<!DOCTYPE svg PUBLIC "-//W3C//DTD SVG 1.1//EN" "http://www.w3.org/Graphics/SVG/1.1/DTD/svg11.dtd">
<!-- Creator: CorelDRAW 2018 (64-Bit) -->
<svg xmlns="http://www.w3.org/2000/svg" xml:space="preserve" width="2.587in" height="2.587in" version="1.1" style="shape-rendering:geometricPrecision; text-rendering:geometricPrecision; image-rendering:optimizeQuality; fill-rule:evenodd; clip-rule:evenodd"
viewBox="0 0 2587 2587"
 xmlns:xlink="http://www.w3.org/1999/xlink">
 <defs>
  <style type="text/css">
   <![CDATA[
    .fil0 {fill:#323232}
   ]]>
  </style>
 </defs>
 <g id="Layer_x0020_1">
  <metadata id="CorelCorpID_0Corel-Layer"/>
  <g id="_2616426897680">
   <path class="fil0" d="M1166.69 586.49c-227.71,23.26 -398.81,88.28 -569.38,182.55 -70.7,39.07 -284.27,193.83 -312.19,252.2 -33.96,70.98 44.1,205.42 181.23,71.19 33.82,-33.11 62.64,-58.86 102.14,-88.2 70.44,-52.31 148.05,-97.74 241.56,-139.62 388.61,-174.06 837.13,-123.65 1185,104.3 91.17,59.75 191.5,158.55 206.18,167.37 56.19,33.74 113.83,1.75 130.93,-39.79 28.75,-69.89 -24.21,-101.01 -49.98,-129.04 -32.51,-35.37 -60.24,-56.33 -97.8,-85.46 -287.54,-222.97 -639.99,-334.09 -1017.67,-295.49z"/>
   <path class="fil0" d="M1193.13 1010.16c-147.91,16.69 -294.73,70.15 -401.11,136.59 -49.31,30.79 -200.34,132.57 -213.65,191.43 -11.02,48.76 14.39,82.94 40.39,98.15 79.09,46.24 137.81,-40.89 177.45,-72.4 325.06,-258.38 756.08,-236.35 1074.63,44.33 25.7,22.65 44.89,50.13 99.49,38.94 88.73,-18.18 82.27,-118.56 28.33,-166.81 -220.31,-197.07 -483.17,-306.59 -805.54,-270.23z"/>
   <path class="fil0" d="M1257.07 1610.53c222.51,-29.37 318.88,119.57 365.86,133.75 53.38,16.11 93.69,-12.86 109.38,-46.05 22.94,-48.5 -1.69,-93.26 -27.68,-116.54 -165.76,-148.41 -418.52,-204.92 -628.52,-106.79 -367.25,171.62 -142.09,339.21 -43.41,242.91 48.36,-47.19 127.48,-94.5 224.36,-107.29z"/>
   <path class="fil0" d="M1144.66 2025.88c10.06,84.59 90.94,153.56 188.68,139.62 83.17,-11.87 152.15,-91.57 137.83,-189.63 -29.55,-202.34 -353.4,-176.07 -326.52,50.01z"/>
  </g>
 </g>
</svg>
