<?xml version="1.0" encoding="UTF-8"?>
<!DOCTYPE svg PUBLIC "-//W3C//DTD SVG 1.1//EN" "http://www.w3.org/Graphics/SVG/1.1/DTD/svg11.dtd">
<!-- Creator: CorelDRAW 2018 (64-Bit) -->
<svg xmlns="http://www.w3.org/2000/svg" xml:space="preserve" width="2.587in" height="2.587in" version="1.1" style="shape-rendering:geometricPrecision; text-rendering:geometricPrecision; image-rendering:optimizeQuality; fill-rule:evenodd; clip-rule:evenodd"
viewBox="0 0 2587 2587"
 xmlns:xlink="http://www.w3.org/1999/xlink">
 <defs>
  <style type="text/css">
   <![CDATA[
    .fil0 {fill:#040404}
   ]]>
  </style>
 </defs>
 <g id="Layer_x0020_1">
  <metadata id="CorelCorpID_0Corel-Layer"/>
  <path class="fil0" d="M2266.25 1832.57c29.33,34.11 80.32,169.12 -5.4,164.09 -77.51,-4.55 -28.3,-147.47 5.4,-164.09zm-1703.57 -521.18c59.75,19.31 133.17,61.46 193.67,89.28l382.92 182.02c32.75,16.94 166.87,88.5 193.73,81.89 13.93,-3.43 75.01,-35.63 91.9,-43.42l287.24 -136.5c63.27,-31.04 129.31,-60.13 192.35,-90.19 61.08,-29.13 130.68,-67.21 189.78,-89.51 6.78,59.71 7.41,285.54 0.68,345.04 -6.11,54.02 -42.04,67.56 -82.07,94.19 -410.06,272.77 -939.02,267.55 -1354.47,7.36 -32.84,-20.57 -80.86,-42.95 -91.94,-85.18 -12.39,-47.2 -3.4,-287.8 -3.78,-354.98zm1776.56 -183.26c-31.8,8.98 -206.07,95.87 -253.82,117.62 -110.35,50.26 -742.99,357.02 -761.15,357.79 -14.62,0.62 -927.56,-431.93 -1016.39,-478.2 9.22,-8.97 997.64,-482.99 1012.68,-484.83 21.04,-2.58 753.2,355.89 892.89,421.22 21.61,10.1 41.8,19.48 63.58,30.49 11.17,5.65 19.37,9.22 31.83,15l30.38 20.92zm-46.65 82.85c32.04,-24.41 130.05,-51.39 144.16,-79.35 15.83,-31.36 -75.78,-62.31 -125.7,-85.44 -300.04,-139.03 -606.54,-295.35 -903.59,-432.1 -85.3,-39.27 -69.85,-49.57 -158.26,-4.31l-908.55 433.09c-137.02,63.86 -186.55,71.36 -64.81,132.01 49.29,24.56 199.23,89.51 225.73,110.53 6.63,98.76 -13.14,310.4 4.99,388.88 20.2,87.41 136.73,140.2 209.93,178.09 411.51,213.01 827.76,206.31 1234.93,-4.9 76.25,-39.55 189.87,-98.35 200.26,-187.49 12.18,-104.54 -0.46,-274.74 1.99,-386.19l81.61 -35.5 -0.72 394.32c-56.64,43.98 -91.81,82.38 -22.83,158.9 -16.57,46.82 -51.44,86.22 -50.18,158.78 1.02,58.74 45.66,101.46 104.66,100.69 58.56,-0.76 101.29,-46.14 99.65,-106.28 -2.02,-73.66 -34.43,-105.52 -51.33,-154.26 23.13,-20.03 45.28,-42.09 35.19,-92.65 -8.26,-41.42 -32.47,-42.87 -57.09,-65.18l-0.02 -421.65z"/>
 </g>
</svg>
