<?xml version="1.0" encoding="UTF-8"?>
<!DOCTYPE svg PUBLIC "-//W3C//DTD SVG 1.1//EN" "http://www.w3.org/Graphics/SVG/1.1/DTD/svg11.dtd">
<!-- Creator: CorelDRAW 2018 (64-Bit) -->
<svg xmlns="http://www.w3.org/2000/svg" xml:space="preserve" width="2.587in" height="2.587in" version="1.1" style="shape-rendering:geometricPrecision; text-rendering:geometricPrecision; image-rendering:optimizeQuality; fill-rule:evenodd; clip-rule:evenodd"
viewBox="0 0 2587 2587"
 xmlns:xlink="http://www.w3.org/1999/xlink">
 <defs>
  <style type="text/css">
   <![CDATA[
    .fil0 {fill:#242424}
   ]]>
  </style>
 </defs>
 <g id="Layer_x0020_1">
  <metadata id="CorelCorpID_0Corel-Layer"/>
  <g id="_2616812037840">
   <path class="fil0" d="M634.7 1927.53c63.11,-174.48 106.24,-157.86 35.72,-297.37 -129.76,-256.69 -102.15,-547.21 54.56,-785.4 12.47,-18.96 26.98,-40.01 42.3,-57.31 20.16,-22.77 30.58,-36.84 49.2,-55.2 58.74,-57.91 140.09,-117.57 240.48,-162.39 100.61,-44.93 218.49,-65.88 336.93,-63.5 202.12,4.06 441.65,116.52 551.83,256.23 29.07,36.86 56.49,69.48 84.61,114.5 177.36,283.96 144.36,655.02 -69.02,910.66 -29.18,34.96 -45.29,47.82 -74.87,74.17 -55.74,49.65 -78.81,65.33 -147.94,105.61 -244.67,142.54 -561.51,116.39 -794.15,-29.57 -42.11,-26.42 -71.34,-66.94 -142.32,-51.7 -55.15,11.83 -113.75,31.78 -167.33,41.26zm-193.89 166.42l381.68 -95.63c15.7,-0.39 56.22,31.83 74.16,42.78 24.95,15.22 50.19,28.51 76.87,42.71 297.99,158.67 690.98,95.57 922.38,-82.8 46.68,-35.98 88.36,-69.09 123.74,-110.33 125.69,-146.51 196.52,-262.88 230.55,-486.68 21.54,-141.55 2.17,-290.81 -42.81,-419.29 -39.25,-112.13 -118.66,-247.69 -207.22,-326.14 -35.76,-31.68 -17.75,-24.73 -94.58,-84.81 -40.13,-31.38 -93.74,-66.51 -146.79,-92.05 -252.98,-121.78 -522.17,-116.65 -777.2,-2.62 -52.42,23.44 -138.5,80.35 -182.15,116.59 -30.81,25.58 -70.71,58.43 -91.94,87.36 -32.95,44.91 -58.54,64.54 -100.7,133.43 -163.42,267.03 -171.43,569.74 -43.27,855.44 16.46,36.7 38.96,45.78 21.69,83.23 -25,54.2 -49.78,112.79 -71.97,167.32 -22.17,54.48 -53.8,114.78 -72.43,171.49z"/>
   <path class="fil0" d="M1063.17 923.92c-0.1,18.07 45.89,143.52 56.91,157.24 30.57,-0.24 112.76,-34.59 160.85,-41.93 89.24,-13.62 110.94,-8.99 167.58,34.21 7.99,58.26 -23.18,59.94 -56.24,85.13 -94.3,71.85 -151.45,92.28 -150.57,245.87 0.21,37.48 3.37,26.06 5.91,31.94 6.78,15.73 160.69,7.3 177.16,4.24 17.66,-141.64 -24.19,-55.7 105.56,-163.59 19.34,-16.08 34.07,-23.39 49.05,-40.57 57.38,-65.85 82.47,-170.7 26.07,-267.59 -105.64,-181.46 -472.2,-94.95 -542.28,-44.93z"/>
   <path class="fil0" d="M1307.31 1498.9c-104.1,27.25 -86.37,170.78 -22.6,198.66 27.36,11.96 62.06,17.27 95.91,6.83 111.91,-34.53 84.72,-246.86 -73.31,-205.49z"/>
  </g>
 </g>
</svg>
