<?xml version="1.0" encoding="UTF-8"?>
<!DOCTYPE svg PUBLIC "-//W3C//DTD SVG 1.1//EN" "http://www.w3.org/Graphics/SVG/1.1/DTD/svg11.dtd">
<!-- Creator: CorelDRAW 2018 (64-Bit) -->
<svg xmlns="http://www.w3.org/2000/svg" xml:space="preserve" width="2.587in" height="2.587in" version="1.1" style="shape-rendering:geometricPrecision; text-rendering:geometricPrecision; image-rendering:optimizeQuality; fill-rule:evenodd; clip-rule:evenodd"
viewBox="0 0 2587 2587"
 xmlns:xlink="http://www.w3.org/1999/xlink">
 <defs>
  <style type="text/css">
   <![CDATA[
    .fil0 {fill:black}
   ]]>
  </style>
 </defs>
 <g id="Layer_x0020_1">
  <metadata id="CorelCorpID_0Corel-Layer"/>
  <g id="_2616483246352">
   <path class="fil0" d="M411.43 1159.21c150.99,0 273.38,122.32 273.38,273.22 0,150.9 -122.39,273.22 -273.38,273.22 -150.99,0 -273.38,-122.32 -273.38,-273.22 0,-150.9 122.39,-273.22 273.38,-273.22zm1.76 59.43c118.52,0 214.6,96.02 214.6,214.47 0,118.45 -96.08,214.47 -214.6,214.47 -118.52,0 -214.59,-96.02 -214.59,-214.47 0,-118.45 96.07,-214.47 214.59,-214.47z"/>
   <path class="fil0" d="M1273.07 1159.21c150.98,0 273.38,122.32 273.38,273.22 0,150.9 -122.39,273.22 -273.38,273.22 -150.99,0 -273.38,-122.32 -273.38,-273.22 0,-150.9 122.39,-273.22 273.38,-273.22zm1.76 59.43c118.52,0 214.59,96.02 214.59,214.47 0,118.45 -96.07,214.47 -214.59,214.47 -118.52,0 -214.6,-96.02 -214.6,-214.47 0,-118.45 96.08,-214.47 214.6,-214.47z"/>
   <path class="fil0" d="M2134.71 1159.21c150.99,0 273.38,122.32 273.38,273.22 0,150.9 -122.39,273.22 -273.38,273.22 -150.99,0 -273.38,-122.32 -273.38,-273.22 0,-150.9 122.39,-273.22 273.38,-273.22zm1.76 59.43c118.52,0 214.6,96.02 214.6,214.47 0,118.45 -96.07,214.47 -214.6,214.47 -118.52,0 -214.59,-96.02 -214.59,-214.47 0,-118.45 96.07,-214.47 214.59,-214.47z"/>
  </g>
 </g>
</svg>
