<?xml version="1.0" encoding="UTF-8"?>
<!DOCTYPE svg PUBLIC "-//W3C//DTD SVG 1.1//EN" "http://www.w3.org/Graphics/SVG/1.1/DTD/svg11.dtd">
<!-- Creator: CorelDRAW 2018 (64-Bit) -->
<svg xmlns="http://www.w3.org/2000/svg" xml:space="preserve" width="2.587in" height="2.587in" version="1.1" style="shape-rendering:geometricPrecision; text-rendering:geometricPrecision; image-rendering:optimizeQuality; fill-rule:evenodd; clip-rule:evenodd"
viewBox="0 0 2587 2587"
 xmlns:xlink="http://www.w3.org/1999/xlink">
 <defs>
  <style type="text/css">
   <![CDATA[
    .fil0 {fill:#FEFEFE}
   ]]>
  </style>
 </defs>
 <g id="Layer_x0020_1">
  <metadata id="CorelCorpID_0Corel-Layer"/>
  <path class="fil0" d="M1418.84 2007.92c-15.09,152.41 -219.82,161.8 -239.82,-0.18l239.82 0.18zm-873.11 -122.18c-0.76,-116.98 29.91,-107.69 88.44,-159.78 41.21,-36.67 81.38,-82.3 107.67,-138.5 111.79,-238.96 64.12,-565.2 216.43,-760.11 142.56,-182.42 502.35,-214.95 683.64,2.16 70.69,84.67 102.56,237.7 122.44,366.08 22.82,147.33 31.61,267.06 93.06,395.02 57.24,119.17 153.04,161.22 175.36,193.94 16.03,23.49 19.46,67.25 19.46,101.09l-1506.5 0.09zm735.26 -1445.47c72.73,-24.69 110.37,86.32 34.63,112.2 -67.07,22.93 -110.78,-86.35 -34.63,-112.2zm185.5 131.91c4.09,-32.49 17.06,-52.1 13.06,-94.99 -7.88,-84.49 -84.61,-162.86 -180.43,-162.28 -99.36,0.6 -169.56,71.69 -179.85,163.96 -5.37,48.16 8.43,58.77 12.31,94.95 -8.97,6.44 -49.34,19.57 -62.3,25.06 -52.2,22.09 -119.46,61 -159.48,99.39 -138.04,132.44 -168.64,304.72 -199.56,496.09 -16.3,100.85 -24.07,196.04 -57.88,286.72 -64.19,172.12 -146,162.16 -194.52,242.65 -34.57,57.36 -41.19,158.03 -24.36,216.3 16.05,55.56 47.74,64.2 109.88,65.82 66.85,1.74 485.86,-1.7 511.77,4.31 16.91,85.85 24.97,119.72 73.83,168.61 139.46,139.56 408.3,56.63 411.92,-170.8 112.69,-2.44 232.18,-2.16 343.84,-2.28 53.85,-0.06 215.62,10.24 248.41,-16.29 51.35,-41.54 44.19,-154.48 30.19,-208.36 -13.2,-50.84 -38.11,-82.28 -67.34,-106.57 -72.45,-60.21 -109.44,-81.35 -150.27,-193.55 -35.45,-97.41 -41.42,-185.67 -58.31,-290.03 -27.85,-172.11 -67.96,-382.18 -201.4,-494.53 -122.38,-103.04 -178.54,-97.1 -219.53,-124.18z"/>
 </g>
</svg>
