<?xml version="1.0" encoding="UTF-8"?>
<!DOCTYPE svg PUBLIC "-//W3C//DTD SVG 1.1//EN" "http://www.w3.org/Graphics/SVG/1.1/DTD/svg11.dtd">
<!-- Creator: CorelDRAW 2018 (64-Bit) -->
<svg xmlns="http://www.w3.org/2000/svg" xml:space="preserve" width="2.587in" height="2.587in" version="1.1" style="shape-rendering:geometricPrecision; text-rendering:geometricPrecision; image-rendering:optimizeQuality; fill-rule:evenodd; clip-rule:evenodd"
viewBox="0 0 2587 2587"
 xmlns:xlink="http://www.w3.org/1999/xlink">
 <defs>
  <style type="text/css">
   <![CDATA[
    .fil0 {fill:#242424}
   ]]>
  </style>
 </defs>
 <g id="Layer_x0020_1">
  <metadata id="CorelCorpID_0Corel-Layer"/>
  <path class="fil0" d="M1270.54 1152.96l265.24 -0.25 -0.04 784.43 -266.56 0.15 1.36 -784.32zm342.85 0.03l379.36 0.05c9.39,186.02 0.93,394.83 0.93,583.35 0,98.17 12.68,192 -92.05,200.32 -82.75,6.57 -203.9,1.72 -289.21,0.02l0.97 -783.74zm-421.1 780.78c-36.97,8.11 -246.39,6.3 -293.02,3.1 -108.37,-7.43 -96.56,-99.99 -96.56,-200.47 -0,-185.98 -9.96,-401 1.08,-583.5l388.85 2.23 -0.35 778.64zm420.95 -1103.74c102.93,-9.15 251.62,-1.9 358.76,-0.78 145.28,1.52 118.53,116.99 116.78,246.78l-475.99 -1.2 0.44 -244.8zm-343.37 -2.04l266.12 0.78 0.14 247.19 -266.43 0.11 0.17 -248.07zm-485.23 4.69c11.94,-10.39 1.06,-6.28 24.59,-8.32l383.38 2.67c2.24,10.67 10.98,236.19 -4.31,249.22l-480.96 -0.93c-0.72,-93.52 -20.73,-237.11 77.31,-242.65zm520.93 -81.62c-72.66,-2.29 -148.58,1.54 -220.46,-1.61 -28.2,-1.24 -27.92,0.56 -41.04,-17.78 -27.75,-38.81 -20.8,-89.66 9.69,-118.89 77.4,-74.21 158.03,35.74 227.8,105.72 16.56,16.61 14.77,12.01 24.01,32.56zm328.59 -142.11c33.83,-33.74 105.91,-127.9 180.63,-57.42 72.31,68.21 -19.67,154.5 -53.82,184.35 -31.39,27.44 -212.21,15.79 -262.85,15.65l136.04 -142.59zm-224.24 121.71c-63.35,-27.5 -159.82,-189.58 -253.79,-214.1 -75,-19.57 -129.36,12.02 -165.82,52.01 -50.78,55.7 -47.41,107.29 -26.83,181.09 -147.82,3.73 -261.04,-17.38 -315.65,99.44 -25.43,54.39 -17.32,124.55 -17.54,187.46 -0.38,107.97 -15.98,114.55 94.73,116.77 6.03,131.64 -15.88,678.09 13.07,750.82 43.83,110.12 134.75,109.99 270.69,109.99l764.03 0c140.48,0 234.54,7.92 283.27,-103.49 32.57,-74.46 8.79,-620.7 15.3,-755.22 105.22,-17.69 93.84,41.07 94.8,-183.08 0.95,-221.02 -107.31,-219.22 -310.06,-220.44 16.91,-30.53 38.76,-36.78 54.73,-84.85 40.81,-122.82 -68.72,-247.17 -199.41,-211.99 -66.45,17.89 -173.3,139.46 -232.13,198.09 -13.68,13.63 -56.47,57.46 -69.39,77.5z"/>
 </g>
</svg>
