<?xml version="1.0" encoding="UTF-8"?>
<!DOCTYPE svg PUBLIC "-//W3C//DTD SVG 1.1//EN" "http://www.w3.org/Graphics/SVG/1.1/DTD/svg11.dtd">
<!-- Creator: CorelDRAW 2018 (64-Bit) -->
<svg xmlns="http://www.w3.org/2000/svg" xml:space="preserve" width="2.587in" height="2.587in" version="1.1" style="shape-rendering:geometricPrecision; text-rendering:geometricPrecision; image-rendering:optimizeQuality; fill-rule:evenodd; clip-rule:evenodd"
viewBox="0 0 2587 2587"
 xmlns:xlink="http://www.w3.org/1999/xlink">
 <defs>
  <style type="text/css">
   <![CDATA[
    .fil0 {fill:#242424}
   ]]>
  </style>
 </defs>
 <g id="Layer_x0020_1">
  <metadata id="CorelCorpID_0Corel-Layer"/>
  <g id="_2616459994208">
   <path class="fil0" d="M1036.48 2019.21l-284.95 -272.16 104.46 -109.69c39.31,-35.99 52.35,-66.12 115.75,-96.51 53.74,-25.76 124.11,-20.47 189.69,-21.85 82.17,-1.74 120.56,-9.44 186,29.67 38.99,23.3 24.79,24.96 80.57,23.17 68.57,-2.2 154.54,-12.97 200.04,16.89 17.09,11.22 40.8,34.96 33.59,66.86 -16.45,72.76 -60.11,73.19 -137.93,75.25 -69.4,1.84 -142.58,4.96 -212.07,4.53l-0.95 42.2c85.56,0.86 177.8,-2.51 263.29,-5.76 84.3,-3.2 123.02,-56.98 133.24,-137.24 47.37,-29.96 71.34,-24.94 106.17,-64.56 13.62,-15.48 28.15,-26.17 41.77,-41.33 26.65,-29.68 99.01,-116.12 135.56,-123.33 46.14,-9.1 105.54,22.3 128.72,45.94 -5.03,13.44 -36.44,40.69 -47.3,52.66l-404.69 424.16c-74.25,63.46 20.97,46.18 -268.62,42.73 -28.02,-0.33 -293.01,-7.13 -307.24,-2.5 -15.65,5.09 -34.63,39.29 -55.1,50.85zm33 31.9c6.61,-13.76 6.74,-11.36 19.28,-22.67 32.67,-29.44 16.89,-19.87 97.67,-18.49 51.47,0.88 102.75,1.46 154.1,2.24 395.8,5.99 266.43,25.69 383.51,-81.66l384.74 -402.36c37.71,-42.82 74.26,-66.33 60.65,-89.05 -10.42,-17.4 -64.09,-51.15 -91.97,-62.57 -122.96,-50.32 -161.14,31.65 -211.65,79.44 -59.24,56.06 -67.98,86.42 -123.28,113.87 -13.73,6.82 -37.93,19.17 -52.11,22.51 -70.11,-87.45 -134.05,-66.23 -266.71,-62.54 -38.3,1.07 -32.74,-5.51 -61.3,-21.33 -81,-44.85 -125.79,-33.38 -217.65,-31.29 -136.17,3.1 -170.48,-0.39 -260.91,71.31l-104.22 104.04c-19.51,19.02 -40.6,49.26 -59.72,63.43 -14.96,-8.83 -31.45,-38.41 -54.86,-28.41 -9.75,4.17 -36.09,36.86 -45.17,46.87 -7.96,8.79 -13.93,15.5 -22.17,23.76 -8.52,8.55 -15.87,13.09 -24.11,21.68 -15.39,16.05 -32.15,28.3 -16.49,54.37 26.15,4.87 30.13,-3.8 41.4,-16.94l78.47 -80.89 77.8 75.66c9.31,9.07 16.71,15.09 26.24,23.76l308.52 293.96c-31.46,55.56 -104.5,79.5 -90.8,126.17 32.18,14.64 41.33,-8.67 79.27,-50.94 18.47,-20.57 61.2,-48.85 63.52,-78.98 -10.63,-17.46 -24.26,-24.69 -36.59,-39.36 -14.27,-16.97 -21.91,-21.89 -35.46,-35.62z"/>
   <path class="fil0" d="M902.33 855.69c-28.57,-266.96 177.89,-480.7 413.11,-503.97 259.15,-25.63 482.37,166.52 505.3,418.72 24.08,264.9 -178.11,476.77 -416.75,499.41 -69.9,6.63 -137,-3.39 -198.36,-25.39 -157.93,-56.63 -283.25,-201.39 -303.3,-388.76zm426.73 -547c-267.69,19.39 -490.35,245 -469.88,537.47 18.68,266.86 249.35,486.53 539.37,466.48 262.63,-18.17 485.79,-248.89 464.89,-538.56 -18.99,-263.24 -249.6,-486.01 -534.38,-465.39z"/>
   <path class="fil0" d="M1168.4 697.96c54.44,17.46 29.39,-34.74 60.47,-70.61 77.2,-89.08 282.86,-42.05 258.86,67.33 -17.91,81.63 -116.13,59.39 -150.9,132.37 -16.5,34.64 -11.04,86.73 -11.26,128.84 -0.11,21.63 -0.96,43.94 23.27,44.04 52.29,0.21 -2.13,-120.03 39.36,-167.42 12.18,-13.91 68.14,-30.04 92.67,-48.92 143.31,-110.3 -11.08,-297.07 -198.91,-240.56 -74.81,22.51 -141.48,98.04 -113.56,154.92z"/>
   <path class="fil0" d="M1333.69 1068.32c-37.2,25.79 1.34,67.18 31.31,49.55 31.95,-18.79 3.93,-73.98 -31.31,-49.55z"/>
  </g>
 </g>
</svg>
