<?xml version="1.0" encoding="UTF-8"?>
<!DOCTYPE svg PUBLIC "-//W3C//DTD SVG 1.1//EN" "http://www.w3.org/Graphics/SVG/1.1/DTD/svg11.dtd">
<!-- Creator: CorelDRAW 2018 (64-Bit) -->
<svg xmlns="http://www.w3.org/2000/svg" xml:space="preserve" width="2.587in" height="2.587in" version="1.1" style="shape-rendering:geometricPrecision; text-rendering:geometricPrecision; image-rendering:optimizeQuality; fill-rule:evenodd; clip-rule:evenodd"
viewBox="0 0 2587 2587"
 xmlns:xlink="http://www.w3.org/1999/xlink">
 <defs>
  <style type="text/css">
   <![CDATA[
    .fil0 {fill:#FEFEFE}
   ]]>
  </style>
 </defs>
 <g id="Layer_x0020_1">
  <metadata id="CorelCorpID_0Corel-Layer"/>
  <g id="_2616398794064">
   <path class="fil0" d="M721.56 1492.19l82.26 0.46c17.09,22.26 34.52,65.95 49.15,92.6 92.99,169.33 177.93,279.56 335.31,398.8 28.3,21.44 149.95,107.84 184.85,107.81 63.28,-0.05 283.37,-182.11 338.81,-246.36 46.05,-53.36 87.12,-98.99 127.35,-164.56 20.95,-34.13 34.87,-56.52 52.4,-90.33 14.74,-28.44 33.43,-75.96 50.76,-96.58l82.15 -2.14c-24.52,74.68 -71.18,160.07 -111.22,225.62 -33.62,55.04 -103.5,156.71 -147.33,197.5 -58.01,53.98 -101.57,106.83 -176.06,160.76 -30.07,21.77 -184.32,123.79 -216.87,123.76 -45.43,-0.05 -248.87,-140.72 -306.15,-199.17 -104.04,-106.15 -141.9,-130.74 -231.26,-278.21l-87.97 -166.77c-10.48,-21.78 -18,-48.46 -26.19,-63.19zm140.98 -1.87l1021.15 0.98c-36.15,113.47 -144.06,245.2 -207.78,318.56 -50.61,58.26 -252.76,226.59 -302.8,226.48 -27.15,-0.06 -135.6,-79.25 -160.88,-98.71 -51.58,-39.73 -98.58,-75.39 -138.67,-123.5 -77.05,-92.49 -173.72,-206.57 -211.04,-323.8zm-410.83 -88.27c-6.88,-26.69 -4.37,-237.43 -2.81,-277.83 3.64,-94.14 76.43,-71.06 212.57,-71.06 184.36,0 370.21,1.83 554.34,-0.14l973.85 -0.01c51.56,-0.32 92.35,-3.53 104.3,43.28 7.37,28.84 4.99,234.75 3.22,276.45 -3.98,93.94 -90.14,70.4 -212.41,70.4l-1385.85 0c-66.83,0.01 -229.96,25.86 -247.22,-41.08zm267.65 -554.28c98.44,-31.11 620.18,-309.19 659.3,-304.41l486.57 231.09c52.03,24.88 117.23,44.73 163.37,80.84l-12.61 148.59 -1286.92 -0.43 -9.71 -155.67zm-131.98 -89.95c28.3,-22.79 776.93,-377.46 785.74,-377.47 10.22,-0 757.99,354.35 788.43,377.63l-17.69 246.31 -74.21 0.31 7.88 -187.29c-94.56,-36.96 -666.4,-329.45 -704.41,-329.46 -36.27,-0.01 -596.23,288.63 -707.6,329.68l12.93 186.75 -78.26 0.09 -12.83 -246.56zm-38.81 246.1c-181.97,0.92 -149.67,81.32 -149.67,330.71 0,183.82 79.25,155.11 262.6,158.19 18.77,25.31 40.42,91.45 55.85,123.61 20.38,42.48 42.72,82.15 65.85,121.06 49.51,83.26 100.93,145.07 155.85,211.42 52.2,63.06 127.31,125.11 192.86,173.59 30.68,22.69 200.99,132.33 241.22,132.3 77.64,-0.06 354.97,-209.32 430.82,-301.63 55.13,-67.09 106.21,-128.5 156.31,-211.03 42.67,-70.28 120.83,-243.97 124.52,-248.85 248.41,-9.77 262.59,30.06 262.59,-241.07 -0,-164.7 26.61,-247.49 -149.98,-248.28 1.3,-40.11 17.79,-240.82 12.17,-266.85 -7.19,-33.29 -114.65,-70.08 -180.14,-103.31l-656.28 -309.12c-16.28,0 -467.23,217.26 -518.06,244.16l-259.13 123.5c-104.09,47.35 -51.19,67.11 -47.39,311.59z"/>
   <path class="fil0" d="M1666.44 1218.55c-33.33,-9.21 -63.59,-25.58 -93.6,-21.91l-6.57 48.61 83.36 20.93 -56.24 72.46c10.87,25.52 29.61,42.3 52.25,22.33 17.79,-15.69 15.72,-38.02 53.5,-60.96 38.96,95.87 63.13,68.28 86.15,57.24 1.69,-41.72 6.08,-28.19 -16.94,-50.64 -14.81,-14.44 -20.02,-20 -33.28,-37.04l81.72 -21c3.54,-27.28 1.81,-33.82 -5.72,-52.64 -30.94,-5.46 -59.34,10.61 -92.14,21.57 1.44,-41.49 19.61,-82.06 -18.93,-91.7 -56.05,-14.02 -35.38,54.35 -33.55,92.75z"/>
   <path class="fil0" d="M1345.44 1217.3c-57.6,-16.35 -93.89,-50.42 -98.64,25.41 21.76,11 53.26,17.44 82.47,22.31 -19.41,38.62 -21.79,24.08 -42.92,50.84 -29.87,37.85 11.67,82.34 55.52,25.13 12.42,-16.2 16.66,-23.62 31.26,-37.7 26.69,23.86 44,84.39 79.41,58.3 36.46,-26.85 -20.55,-68 -38.22,-94.3 38.92,-8.34 95.41,-6.53 84.01,-49.42 -12.02,-45.24 -59.19,-8.3 -99.89,-1.16l3.29 -79.62c-71.02,-33.57 -58.67,31.41 -56.28,80.2z"/>
   <path class="fil0" d="M706.36 1217.7c-57.67,-16.76 -102.44,-55.69 -97.38,27.51l82.32 21.04c-41.72,65.81 -79.42,53.61 -30.98,104.92 39.8,-6.69 27.35,-16.4 56.2,-48.96l19.88 -17.47c15.96,20.66 45.55,84.81 78.06,55.55 29.75,-26.78 -3.48,-39.07 -39.09,-91.57 28.54,-7.96 92.78,-11.95 83.27,-49.89 -10.24,-40.88 -42.63,-15.4 -99.7,-0.39 3.9,-42.05 20.43,-82.65 -17.89,-91.64 -50.43,-11.83 -34.81,51.85 -34.68,90.9z"/>
   <path class="fil0" d="M1027.93 1218.1l-85.16 -24.5c-50.07,67.3 23.57,54.33 63.3,73.99 -4.15,27.39 -66.91,45.9 -38.89,91.34 38.5,33.62 56.41,-24.24 83.83,-53.97l35.16 40.2c13.35,16.26 23.55,32.74 46.07,18.22 43.72,-28.19 -22.57,-59.84 -38.84,-98.25 32.94,-4.27 62.5,-8.25 83.73,-27.89l-4.22 -37.81c-29.97,-6.26 -57.65,8.63 -92.69,19.08l3.86 -86.52c-78.57,-21.11 -61.98,25.88 -56.16,86.12z"/>
   <path class="fil0" d="M1987.39 1218.67l-85.76 -24.78c-40.63,61.68 17.41,59.72 66.61,70.66 -18.19,26.11 -45.76,52.82 -52.31,77.57 14.41,24.47 5.63,17.61 34,27.4 26.23,-14.64 36.45,-40.83 59.93,-65.81 1.39,1.18 3.5,1.26 4.07,3.67l55.86 62.46c0.2,0.04 73.14,-1.8 8.03,-73.31 -16.3,-17.9 -12.76,-8.06 -24.29,-29.31 48.8,-10.47 102.34,-7.93 76.16,-68.31 -32.52,-8.93 -53.13,8.36 -90.82,18.15l1.8 -84.19c-78.3,-20.23 -59.71,22.77 -53.28,85.81z"/>
  </g>
 </g>
</svg>
