<?xml version="1.0" encoding="UTF-8"?>
<!DOCTYPE svg PUBLIC "-//W3C//DTD SVG 1.1//EN" "http://www.w3.org/Graphics/SVG/1.1/DTD/svg11.dtd">
<!-- Creator: CorelDRAW 2018 (64-Bit) -->
<svg xmlns="http://www.w3.org/2000/svg" xml:space="preserve" width="2.587in" height="2.587in" version="1.1" style="shape-rendering:geometricPrecision; text-rendering:geometricPrecision; image-rendering:optimizeQuality; fill-rule:evenodd; clip-rule:evenodd"
viewBox="0 0 2587 2587"
 xmlns:xlink="http://www.w3.org/1999/xlink">
 <defs>
  <style type="text/css">
   <![CDATA[
    .fil0 {fill:#242424}
   ]]>
  </style>
 </defs>
 <g id="Layer_x0020_1">
  <metadata id="CorelCorpID_0Corel-Layer"/>
  <g id="_2616471398848">
   <path class="fil0" d="M766.97 1555.31l1103.79 0.74 0.02 529.26 -1104.05 -0.04 0.23 -529.96zm-66.68 261.83c-44,2.2 -214.15,4.74 -244.3,-5.13 -91.43,-29.94 -85.63,-109.81 -85.56,-171.91 0.09,-83.55 -9.67,-459.06 5.8,-508.86 22.57,-72.7 81.62,-85.66 169.13,-85.54l1538.77 0c42.71,-0.02 80.64,-3.26 115.07,13.71 21.42,10.56 48.73,38.76 58.52,67.49 15.59,45.74 6.8,427.22 6.84,507.73 0.02,42.79 4.55,81.67 -13.7,117.38 -47.54,93.02 -182.48,65.28 -315.65,65.56l-0.22 -327 -1232.87 -0.15 -1.83 326.72zm65.3 -1307l1103.89 1.79 -1.76 469.04 -1101.79 -1.11 -0.33 -469.73zm-64.58 470.75c-146.83,0.59 -273.72,-26.51 -355.48,70.49 -61.11,72.5 -39.48,269.08 -39.48,380.63 0,171.69 -50.08,445.11 189.88,450.17 61.47,1.3 148.14,-5.93 206.02,1.59l0.67 266.11 1232.49 -1.37 1.76 -266.22c141.81,-1.22 278.5,24.78 354.31,-73.51 58.33,-75.63 37.89,-270.31 37.89,-382.25 0,-112.13 22.13,-306.89 -42.35,-377.93 -86.2,-94.96 -204.7,-66.43 -352.61,-67.82l0.18 -535.07 -1233.28 2.18 0 533z"/>
   <path class="fil0" d="M1712.02 1787.72l-608.09 0.22c-41.22,0 -209.18,-12 -230.15,11.22 -10.91,12.07 -27.53,53.8 49.18,53.43 149.72,-0.72 797.11,8.3 840.43,-7.47 14.09,-43.61 -0.8,-57.67 -51.37,-57.4z"/>
   <path class="fil0" d="M1689.89 2004.92c37.18,0.08 83.65,6.84 79.6,-34.93 -3.94,-40.58 -60.34,-29.72 -96.06,-29.7l-728.32 -0.02c-34.11,-0.17 -87.16,-6.2 -79.31,39.35 5.94,34.52 55.94,25.33 95.74,25.3l728.35 0z"/>
   <path class="fil0" d="M1689.88 1699.94c33.74,0.16 84.56,6.37 79.64,-36.52 -4.41,-38.46 -60.3,-28 -96.09,-27.98l-728.33 -0.02c-32.99,-0.16 -86.07,-7.9 -79.58,37.54 5.22,36.49 61.85,27.01 96.02,26.96l728.33 0.02z"/>
   <path class="fil0" d="M1854.57 1227.96c-56.89,22.43 -26.87,120.59 54.91,89.22 50.94,-19.55 25.03,-120.73 -54.91,-89.22z"/>
  </g>
 </g>
</svg>
