<?xml version="1.0" encoding="UTF-8"?>
<!DOCTYPE svg PUBLIC "-//W3C//DTD SVG 1.1//EN" "http://www.w3.org/Graphics/SVG/1.1/DTD/svg11.dtd">
<!-- Creator: CorelDRAW 2018 (64-Bit) -->
<svg xmlns="http://www.w3.org/2000/svg" xml:space="preserve" width="2.587in" height="2.587in" version="1.1" style="shape-rendering:geometricPrecision; text-rendering:geometricPrecision; image-rendering:optimizeQuality; fill-rule:evenodd; clip-rule:evenodd"
viewBox="0 0 2587 2587"
 xmlns:xlink="http://www.w3.org/1999/xlink">
 <defs>
  <style type="text/css">
   <![CDATA[
    .fil0 {fill:black}
   ]]>
  </style>
 </defs>
 <g id="Layer_x0020_1">
  <metadata id="CorelCorpID_0Corel-Layer"/>
  <g id="_2616277335248">
   <path class="fil0" d="M2061.89 2255.15l-1542.32 0.53c-34.48,-461.09 721.94,-1033.95 1302.9,-500.4 90.2,82.85 253.87,300.93 239.43,499.87zm-1683.66 86.56c21.09,84.66 222.57,49.83 301.04,49.83l1059.95 0c480.77,0 502.2,46 452.48,-231.39 -102.45,-571.59 -727.02,-913.17 -1268.06,-674.94 -168.19,74.06 -297.5,192.1 -388.02,318.94 -64.56,90.45 -197.48,376.62 -157.39,537.55z"/>
   <path class="fil0" d="M1210.91 326.12c503.39,-113.65 686.53,666.79 163.8,781.94 -500.23,110.2 -703.62,-660.06 -163.8,-781.94zm-23.02 -133.79c-259.6,57.65 -493.81,298.64 -421.53,636.15 55.2,257.76 307.62,480.44 633.41,413.15 255.37,-52.76 485.59,-306.42 415.77,-635.06 -53.37,-251.22 -304.38,-486.02 -627.65,-414.24z"/>
  </g>
 </g>
</svg>
