<?xml version="1.0" encoding="UTF-8"?>
<!DOCTYPE svg PUBLIC "-//W3C//DTD SVG 1.1//EN" "http://www.w3.org/Graphics/SVG/1.1/DTD/svg11.dtd">
<!-- Creator: CorelDRAW 2018 (64-Bit) -->
<svg xmlns="http://www.w3.org/2000/svg" xml:space="preserve" width="2.587in" height="2.587in" version="1.1" style="shape-rendering:geometricPrecision; text-rendering:geometricPrecision; image-rendering:optimizeQuality; fill-rule:evenodd; clip-rule:evenodd"
viewBox="0 0 2587 2587"
 xmlns:xlink="http://www.w3.org/1999/xlink">
 <defs>
  <style type="text/css">
   <![CDATA[
    .fil0 {fill:#010101}
   ]]>
  </style>
 </defs>
 <g id="Layer_x0020_1">
  <metadata id="CorelCorpID_0Corel-Layer"/>
  <g id="_2616460477872">
   <path class="fil0" d="M1038.98 1532.72c45.26,-33.66 45.07,-27.33 76.53,-0.84 64.03,53.92 152.46,101.48 251.3,120.85 152.35,29.86 279.26,0.5 404.69,-75.8 45.59,-27.73 68.99,-53.33 96.8,-70.36 24.59,11.51 54.45,35.17 75.6,51.18 182.87,138.35 269.14,353.68 266.65,595.11l-1109.49 1.21 0.79 81.04 1189.66 -0.51c19.59,-69.42 0.24,-227.22 -14.3,-297.64 -31.43,-152.2 -124.22,-321.59 -236.26,-411.48 -55.11,-44.21 -115.88,-99.25 -188.84,-128.93 -22.17,15.85 -48.75,44.06 -72.99,66.64 -75.98,70.78 -192.39,112.7 -303.52,111.93 -248.21,-1.73 -328.26,-150.12 -380.56,-178.15 -57.98,26.01 -165.59,102.71 -204.72,147.26l55.91 59.31 92.75 -70.81z"/>
   <path class="fil0" d="M1439.35 538.43c239.67,-16.81 435.48,152.61 455.41,385.49 10.3,120.4 -27.89,227.66 -103.09,312.98 -54.64,61.98 -149.8,134.53 -276.52,143.04 -110.71,7.44 -237.71,-25.11 -319.03,-102.77 -292.41,-279.26 -101.33,-714.58 243.22,-738.74zm-472.41 455.3c13.33,267.63 254.64,496.99 545.18,474.43 271.95,-21.12 487.71,-249.57 471.46,-542.48 -14.91,-268.93 -254.31,-495.36 -544.59,-475.18 -270.26,18.79 -486.67,249.8 -472.06,543.23z"/>
   <path class="fil0" d="M376.21 1663.35c1.06,-11.45 12.34,-18.82 21.09,-27.31 30.02,-29.16 165.02,-164.01 188.31,-172.92 13.83,15.78 198.58,189.76 205.77,203.05l-120.09 1.18c-8.58,65.5 8.74,177.93 24.71,239.92 29.79,115.59 75.2,162.02 79.8,183.03 -76.44,-20.97 -163.24,-112.24 -200.28,-160.01 -70.7,-91.19 -72.26,-175.95 -96.62,-263.39l-102.69 -3.54zm556.9 14.56l-351.97 -334.42 -103.26 93.8c-18.76,16.42 -32.45,33.31 -51.3,49.83l-149.89 145.7c-60.5,62.93 -47.02,42.3 -15.85,121.44l143.3 3.57c8.79,13.74 22.99,76.09 31.32,97.9 54.24,142.04 171.6,255.7 309.31,318.08 35.44,16.06 152.49,62.24 192.38,60.03 16.21,-15.88 25.85,-46.19 34.28,-70.12 -21.64,-27.48 -55.2,-50.82 -79.22,-76.64 -87.24,-93.79 -120.8,-185.61 -133.62,-330.36l145.63 -5.7 28.89 -73.12z"/>
   <path class="fil0" d="M884.52 1004.93c12.55,-147 -32.92,-51.28 -181.81,-128.98 -158.61,-82.77 -221.87,-294.09 -120.76,-455.96 118.58,-189.85 397.95,-210.56 542.14,-9.93 8.96,12.46 13.26,23.29 23.57,32.29 25.88,-1.38 61.21,-20.56 73.7,-35.67 -12.04,-47.15 -96.03,-127.21 -129.03,-151.03 -59.19,-42.72 -121.21,-67.22 -211.75,-72.53 -523.8,-30.65 -632.43,789.41 3.93,821.79z"/>
  </g>
 </g>
</svg>
