<?xml version="1.0" encoding="UTF-8"?>
<!DOCTYPE svg PUBLIC "-//W3C//DTD SVG 1.1//EN" "http://www.w3.org/Graphics/SVG/1.1/DTD/svg11.dtd">
<!-- Creator: CorelDRAW 2018 (64-Bit) -->
<svg xmlns="http://www.w3.org/2000/svg" xml:space="preserve" width="2.587in" height="2.587in" version="1.1" style="shape-rendering:geometricPrecision; text-rendering:geometricPrecision; image-rendering:optimizeQuality; fill-rule:evenodd; clip-rule:evenodd"
viewBox="0 0 2587 2587"
 xmlns:xlink="http://www.w3.org/1999/xlink">
 <defs>
  <style type="text/css">
   <![CDATA[
    .fil0 {fill:black}
   ]]>
  </style>
 </defs>
 <g id="Layer_x0020_1">
  <metadata id="CorelCorpID_0Corel-Layer"/>
  <g id="_2616384799088">
   <path class="fil0" d="M1193.4 2264c-8.3,24.13 -61.81,94.69 -82.62,103.39 -48.7,20.35 -108.17,-31.69 -91.81,-82.85 4.91,-15.34 26.31,-41.08 35.96,-54.42 11.7,-16.18 23.31,-39.54 46.47,-48.41 50.19,-19.2 108.77,33.46 92,82.28zm-202.27 -240.21c37.52,-8.09 119.63,36.17 64.7,112.32 -21.37,29.63 -71.26,113.02 -103.88,122.41 -44.76,12.89 -129.02,-36.93 -69.02,-114.68 33.91,-43.94 67.24,-111.22 108.2,-120.06zm-125.19 -155.09c36.3,-8.96 74.57,20.09 83.5,47.26 14.51,44.16 -51.96,116.58 -88.12,165.63 -15.74,21.34 -34.21,58.04 -64.35,66.86 -37.66,11.02 -76.15,-20.31 -85.04,-44.98 -14.78,-41.01 16.28,-68.4 33.44,-92.59 23.27,-32.8 84.93,-133.39 120.58,-142.19zm-123.7 -160.9c45.85,-22 134.45,33.3 76.25,109.77 -33.48,44 -143.08,206.75 -166.41,217.18 -41.88,18.72 -91.26,-16.63 -96.98,-50.83 -6.18,-36.97 22.89,-66.41 50.48,-103.82 27.35,-37.09 103.26,-156.27 136.66,-172.3zm173.59 -237.54c16.09,-75.15 60.81,-182.16 89.68,-251.19 45.11,-107.89 60.61,-120.39 177.44,-156.61 139.7,-43.3 125.34,-47.82 269.98,-6.78 119.02,33.77 157.57,49.02 283.28,15.5 19.72,55.91 58.48,123.95 84.5,180.93l170.79 362.11c21.06,45.98 38.34,48.46 4.74,85.37 -18.61,20.45 -42.05,44.41 -72.22,57.44 -20.89,-10.68 -42.49,-35.27 -63.19,-52.74l-355.13 -340.22c-67.29,-65.37 -95.03,-119.59 -195.06,-148.19 -80.83,-23.11 -120.15,-15.53 -157.6,46.81 -34.52,57.48 -19.09,250.57 -237.22,207.57zm-337.11 193.32c8.47,-26.89 218.16,-419.44 249.35,-477.56 23.7,-44.16 25.71,-62.29 53.29,-68.7 34.62,-8.04 74.03,-8.83 109.94,-1.58 -0.3,3.94 -44.32,104.09 -52,122.9 -17.84,43.67 -33.14,82.49 -47.62,128.43 -7.8,24.76 -44.58,114.86 -32.5,133.19 31.3,47.44 283.08,68.69 321.01,-142.31 8.1,-45.07 22.87,-108.02 74.93,-100.93 76.09,10.36 124.88,50.22 167.33,100.02 48.46,56.87 243.25,231.38 310.72,303.3 19.19,20.45 22.78,28.75 44.82,45.41l189.23 162.93c76.65,70.63 5.09,144.56 -56.07,137.55 -28.17,-3.23 -41.09,-19.31 -57.14,-33.24l-190.64 -162.08c-25.55,-11.86 -49.81,12.83 -34.96,39.31 2.96,5.27 83.06,71 94.85,81.98 37.6,35 75.69,55.33 82.05,94.07 9.52,57.91 -58.8,134.12 -143.05,56.91l-94.8 -81.2c-12.26,-10.19 -34.24,-35.21 -50.13,-37.09 -31.67,-3.74 -37.69,30.93 -19.86,48.4 8.52,8.35 14.39,10.25 24.85,20.39l69.84 60.96c74.16,70.82 9.97,146.4 -56.12,138.08 -48.95,-6.16 -122.96,-106.67 -155.15,-110.9 -26.65,-3.5 -35.83,27.67 -23.06,44.49 19.96,26.28 75.47,46.3 83.39,93.6 9.11,54.39 -33.43,96.55 -85.82,90.54 -30.26,-3.46 -74.87,-45.59 -106.58,-70.32 -3.79,-52.85 8.72,-68.47 -26.62,-108.85 -21.27,-24.31 -50.39,-45.18 -96.26,-48.21 2.58,-47.95 -0.22,-79.05 -26.09,-109.3 -22.74,-26.6 -60.04,-43.18 -96.35,-46.49 6.61,-47.43 1.92,-79.94 -27.78,-109.39 -50.08,-49.63 -72.17,-36.12 -89.87,-49.81 23.31,-78.78 -25.87,-133.63 -81.19,-153.99 -84.26,-31.01 -126,35.91 -153.74,68.41 -10.35,-4.97 -0.9,0.3 -11.09,-7.13 -2.19,-1.59 -7.03,-5.59 -10.08,-8.03l-51.06 -43.72zm-268.53 -18.06c3.29,-27.63 98.4,-197.18 118.65,-235.55l242.04 -462.32c35.46,-66.37 21.54,-75.12 89.46,-34.42 36.33,21.77 71.83,41.86 107.03,66.77 -0.44,31.66 -173.08,340.58 -193.04,381.91 -29.95,62.03 -67.14,128.17 -99.41,189.63l-98.84 183.86c-26.56,1.61 -155.06,-71.66 -165.89,-89.88zm1429.4 -709.13c20.74,-14.79 109.53,-45.91 143.19,-59.25 36.98,-14.66 39.76,3.31 53.47,33.83 92.06,205 196.96,413.89 291.62,620.37 43.59,95.07 66.11,107.98 20.26,126.83 -32.51,13.37 -116.54,58.56 -148.52,54.89l-183.41 -384.62c-24.38,-53.52 -178.77,-362.65 -176.63,-392.05zm-1382.18 492.29c-17.31,32 -30.52,59.63 -48.07,91.94 -86.96,160.12 -75.58,149.35 73.17,235.23 27.7,15.99 63.37,43.37 104.09,32.38 41.61,-11.24 40.15,-41.54 65.02,-73.15 14.31,8.31 56.91,42.99 66.71,56.62 -21.78,26.94 -42.12,55.91 -62.83,85.34 -17.2,24.44 -49.28,60.7 -54.48,95.38 -8.05,53.63 14.89,84.62 41.68,108.33 33.83,29.93 55.91,31.44 111.93,32.31 4.24,43.5 24.72,65.75 48.15,83.11 32.45,24.03 51.65,32.36 101.65,26.85l10.18 28.35c3.15,8.87 5.24,13.06 10.03,21.36 25.38,44.07 78.1,66.59 137.56,60.39 4.61,39.86 18.72,58.29 40.52,77.78 19.88,17.78 47.45,34.19 81.67,35.29 83.79,2.7 106.84,-71.34 135.39,-97.88 17.4,7.41 48.91,38.26 68.6,52.12 81.28,57.19 200.16,12.85 208.12,-101.02 59.94,8.98 77.2,16.56 128.33,-16.61 30.96,-20.08 46.46,-51.43 54.97,-101.6 96.24,24.54 170.79,-22.46 180.74,-114.26 81.54,34.58 158.91,-5.14 184.05,-68.61 28.86,-72.87 -14.13,-142.72 -76.48,-177.94 6.98,-12 -0.08,-2.5 9.37,-11.12 3.08,-2.81 6.97,-4.94 10.69,-7.58 21.92,-15.58 36.03,-34.2 54.81,-53.23 63.44,71.3 83.64,39.37 186.39,-3.31 81.3,-33.76 125.66,-48.41 79.78,-148.69 -16.73,-36.58 -333.55,-716.84 -349.25,-734.29 -25.89,-28.78 -53.96,-32.19 -96.27,-15.54 -63.37,24.94 -159.74,49.74 -175.6,95.33 -13.77,39.57 11.26,69.76 21.97,98.93 -119.98,61.56 -296.13,-68.43 -424.95,-45.55 -52.02,9.24 -188.6,51.02 -233.11,82.73 -19.04,13.56 -15.62,14.02 -41.28,6.96 -46.23,-12.73 -71.89,-3.35 -114.06,-7.33 54.92,-104.26 13.5,-116.39 -66.22,-165.05 -53.36,-32.56 -132.96,-99.77 -181.12,-20.73 -18.57,30.48 -32.42,62.4 -49.91,94.53 -80.35,147.6 -161.42,313.38 -241.96,462.23z"/>
   <path class="fil0" d="M1591.31 557.52c-21.48,153.69 -161.29,284 -341.66,259.23 -151.09,-20.74 -283.37,-162.11 -257.65,-342.24 21.81,-152.76 162.61,-281.49 341.98,-257.01 151.05,20.62 282.23,161.77 257.32,340.02zm-336.3 -395.19c-183.46,21.04 -341.47,181.49 -318.19,393.29 20.08,182.7 184.89,339.37 394.46,315.94 182,-20.35 338.03,-185.7 314.86,-393.24 -20.25,-181.42 -184.46,-339.7 -391.13,-316z"/>
   <path class="fil0" d="M1324.18 692.9c59.07,-17.93 106.13,-78.54 67,-148.66 -44.89,-80.43 -129.11,-54.63 -139.8,-100.41 -9.1,-38.97 18.1,-65.79 56.97,-60.26 52.21,7.43 36.52,48.48 63.17,58.82 56.27,21.84 50.81,-85.31 -47.73,-111.14 1.79,-60.26 -54.38,-61.25 -53.71,0.78 -59.52,15.41 -101.76,94.57 -57.09,155.38 20.96,28.54 35.01,32.43 78,43.94 82.63,22.13 73.37,122.69 -6.31,110.11 -54.63,-8.63 -35.47,-51.34 -61.73,-61.07 -61.67,-22.86 -46.26,94.19 46.73,112.85 0.84,37.1 11.65,47.76 46.89,37.06 6.09,-13.02 7.26,-17.44 7.62,-37.39z"/>
  </g>
 </g>
</svg>
