<?xml version="1.0" encoding="UTF-8"?>
<!DOCTYPE svg PUBLIC "-//W3C//DTD SVG 1.1//EN" "http://www.w3.org/Graphics/SVG/1.1/DTD/svg11.dtd">
<!-- Creator: CorelDRAW 2018 (64-Bit) -->
<svg xmlns="http://www.w3.org/2000/svg" xml:space="preserve" width="2.587in" height="2.587in" version="1.1" style="shape-rendering:geometricPrecision; text-rendering:geometricPrecision; image-rendering:optimizeQuality; fill-rule:evenodd; clip-rule:evenodd"
viewBox="0 0 2587 2587"
 xmlns:xlink="http://www.w3.org/1999/xlink">
 <defs>
  <style type="text/css">
   <![CDATA[
    .fil0 {fill:#FEFEFE}
   ]]>
  </style>
 </defs>
 <g id="Layer_x0020_1">
  <metadata id="CorelCorpID_0Corel-Layer"/>
  <g id="_2616420027552">
   <path class="fil0" d="M602.72 491.88c27.6,-11.32 1013.85,-4.97 1184.97,-4.97 221.28,0 190.58,-20.94 203.77,196.2l66.24 1125.18c5.69,93.31 40.07,255.01 -105.42,279.72 -64.28,10.92 -1035.39,2.93 -1189.16,2.93 -96.9,0 -262.12,25.35 -276.72,-123.45 -6.1,-62.22 54.87,-980.93 63.7,-1128.24 3.87,-64.58 7.7,-128.07 11.42,-192.56 3.44,-59.74 -6.36,-135.31 41.19,-154.81zm-16.15 -97.81c-142.13,38.82 -120.23,171.11 -129.26,321.31 -10.07,167.41 -80.34,1198.37 -69.26,1273.07 17.5,117.97 113.06,200.09 244.93,202.39 154.04,2.69 1271.41,7.97 1338.1,-4.51 116,-21.71 198.46,-118.36 193.97,-255.21 -4.62,-140.85 -16.89,-284.58 -24.94,-425.88 -16.02,-281.33 -33.95,-562.81 -49.54,-844.02 -6.23,-112.34 7.97,-270.67 -172.64,-274.27 -146.12,-2.91 -1276.27,-7.94 -1331.36,7.11z"/>
   <path class="fil0" d="M1578.99 746.29c2.3,-41.74 7.87,-143.69 -48.14,-155.8 -56.2,-12.15 -55.98,82.89 -55.16,115.66 3.9,138.7 22.11,331.09 -150.51,376.78 -104.12,27.56 -217.48,-38.3 -241.28,-144.04 -21.43,-95.21 2.53,-206.48 -11.57,-304.07 -10.46,-64.89 -78.5,-53.06 -92.42,-16.13 -8.94,23.74 -5.22,133.66 -5.77,167.96 -2.06,133.2 -1.92,239.8 110.85,332 152.47,124.67 361.71,77.24 456.65,-92.91 46.57,-83.46 32.71,-185.92 37.35,-279.46z"/>
   <rect class="fil0" x="618.8" y="1675.47" width="243.05" height="101.92" rx="50.96" ry="50.96"/>
   <rect class="fil0" x="618.8" y="1846.9" width="478.25" height="101.92" rx="100.28" ry="50.96"/>
  </g>
 </g>
</svg>
