<?xml version="1.0" encoding="UTF-8"?>
<!DOCTYPE svg PUBLIC "-//W3C//DTD SVG 1.1//EN" "http://www.w3.org/Graphics/SVG/1.1/DTD/svg11.dtd">
<!-- Creator: CorelDRAW 2018 (64-Bit) -->
<svg xmlns="http://www.w3.org/2000/svg" xml:space="preserve" width="2.587in" height="2.587in" version="1.1" style="shape-rendering:geometricPrecision; text-rendering:geometricPrecision; image-rendering:optimizeQuality; fill-rule:evenodd; clip-rule:evenodd"
viewBox="0 0 2587 2587"
 xmlns:xlink="http://www.w3.org/1999/xlink">
 <defs>
  <style type="text/css">
   <![CDATA[
    .fil0 {fill:#242424}
   ]]>
  </style>
 </defs>
 <g id="Layer_x0020_1">
  <metadata id="CorelCorpID_0Corel-Layer"/>
  <g id="_2616471397504">
   <path class="fil0" d="M1276.34 614.6c301.46,-33.86 600.81,137.6 725.69,406.53 41.48,89.35 70.06,189.59 70.39,306.88 0.85,297.17 -133.12,339.57 -101.39,458.99 12.48,46.94 28.83,97.37 43.11,144.14 27.72,90.76 34.06,100.11 -48.58,74.94 -330.4,-100.63 -161.13,-45.93 -426.09,25.85 -405.96,109.96 -822.48,-148.15 -900.81,-563.2 -77.25,-409.33 203.82,-805.39 637.68,-854.12zm911.68 776.02c23.8,-270.9 -103.2,-505.98 -232.83,-639.03 -36.45,-37.42 -71.38,-69.37 -117.98,-102.87 -138.31,-99.43 -315.75,-157.15 -498,-155.5 -474.7,4.31 -875.65,414.34 -828.59,919.77 11.83,127.07 51.3,237.7 104.46,332.96 48.47,86.87 124.34,180.85 199.34,238.65 82.89,63.88 164.88,116.69 284.53,153.34 201.77,61.81 446.57,47.86 634.73,-56.17 35.28,-19.5 28.65,-13.92 82.25,1.81 116.09,34.07 244.02,104.33 315.84,-12.41 37.36,-60.73 14.23,-111.52 -4.81,-173.42 -8.72,-28.37 -16.59,-55.95 -25.02,-83.27 -8.32,-26.95 -25.61,-59.65 -11.84,-84.83 54.74,-100.17 86.25,-206.22 97.92,-339.04z"/>
   <path class="fil0" d="M978.54 1189.61c9.64,62.73 102.06,47.1 166.27,47.1l428.38 0c23.74,0 88.33,3.06 106.93,-2.85 56.95,-18.09 57.83,-113.05 -24.36,-114.61 -166.52,-3.15 -364.13,0.08 -534.02,0.08 -45.68,0 -156.76,-17.97 -143.2,70.27z"/>
   <path class="fil0" d="M1716.3 1512.54c14.97,-35.98 -3.78,-80.2 -70.59,-80.08l-309.77 0.03c-52.54,0 -101.22,-7.86 -119.41,36.53 -14.51,35.39 4.06,81.06 69.96,80.95l309.77 -0.11c55.06,0 100.82,8.84 120.04,-37.32z"/>
  </g>
 </g>
</svg>
