<?xml version="1.0" encoding="UTF-8"?>
<!DOCTYPE svg PUBLIC "-//W3C//DTD SVG 1.1//EN" "http://www.w3.org/Graphics/SVG/1.1/DTD/svg11.dtd">
<!-- Creator: CorelDRAW 2018 (64-Bit) -->
<svg xmlns="http://www.w3.org/2000/svg" xml:space="preserve" width="2.587in" height="2.587in" version="1.1" style="shape-rendering:geometricPrecision; text-rendering:geometricPrecision; image-rendering:optimizeQuality; fill-rule:evenodd; clip-rule:evenodd"
viewBox="0 0 2587 2587"
 xmlns:xlink="http://www.w3.org/1999/xlink">
 <defs>
  <style type="text/css">
   <![CDATA[
    .fil0 {fill:#373435}
   ]]>
  </style>
 </defs>
 <g id="Layer_x0020_1">
  <metadata id="CorelCorpID_0Corel-Layer"/>
  <path class="fil0" d="M2020.74 1971.78c-5.29,18.99 -106.92,80.33 -135.64,94.16 -191.5,92.18 -380.38,120.56 -592.22,57.59 -517.57,-153.87 -722.18,-755.12 -435.44,-1195.11 15.26,-23.41 33.45,-48.34 48.89,-65.87 12.64,-14.35 16.33,-20.78 26.99,-33.06 11.87,-13.68 19.73,-15.17 31.21,-28.65 95.51,-112.2 318.44,-218.26 482.53,-224.66 -33.88,55.66 -68.61,78.57 -114.8,177.99 -257.73,554.79 114.7,1170.61 688.48,1217.61zm-588.46 -1454.64c-438.05,38.05 -806.89,440.28 -761.11,928.24 41.87,446.34 431.56,807.34 925.41,766.24 160.96,-13.4 332.28,-82.8 449.48,-179.49 19.27,-15.9 76.79,-54.59 74.99,-82.95 -2.84,-44.8 -65.99,-32.17 -118.93,-39 -87.6,-11.29 -169.31,-35.13 -246.83,-74.13 -113.8,-57.25 -214.95,-138.86 -289.92,-239.32 -120.41,-161.33 -178.18,-368.95 -150.84,-576.15 48.08,-364.44 280.63,-450.7 218.19,-500.11 -17.1,-13.53 -75.31,-5.5 -100.44,-3.32z"/>
 </g>
</svg>
