<?xml version="1.0" encoding="UTF-8"?>
<!DOCTYPE svg PUBLIC "-//W3C//DTD SVG 1.1//EN" "http://www.w3.org/Graphics/SVG/1.1/DTD/svg11.dtd">
<!-- Creator: CorelDRAW 2018 (64-Bit) -->
<svg xmlns="http://www.w3.org/2000/svg" xml:space="preserve" width="2.587in" height="2.587in" version="1.1" style="shape-rendering:geometricPrecision; text-rendering:geometricPrecision; image-rendering:optimizeQuality; fill-rule:evenodd; clip-rule:evenodd"
viewBox="0 0 2587 2587"
 xmlns:xlink="http://www.w3.org/1999/xlink">
 <defs>
  <style type="text/css">
   <![CDATA[
    .fil0 {fill:#FEFEFE}
   ]]>
  </style>
 </defs>
 <g id="Layer_x0020_1">
  <metadata id="CorelCorpID_0Corel-Layer"/>
  <g id="_2616383776720">
   <path class="fil0" d="M355.47 700.22c497.34,-0.2 994.74,-0.06 1492.1,-0.06 117.96,0 246.6,-14.13 338.24,36.92 207.38,115.54 154.94,343.36 154.94,589.49 0,36.41 -4.11,157.61 2.96,182.24 14.96,52.08 97.62,53.3 97.62,-26.25l0.02 -473.02c0.02,-184.19 -107.57,-326.25 -244.81,-379.17 -97.2,-37.47 -167.09,-31.03 -278.53,-31.03l-935.96 0c-207.2,0 -420,4.74 -626.51,-0.41 14.1,-26.29 131.75,-138.25 160,-166.61 15.51,-15.56 69.44,-59.01 67.82,-91.83 -2.28,-46.02 -52.56,-64.08 -93.12,-24.2l-241.52 241.71c-18.22,18.13 -69.35,59.83 -70.57,89.4 -1.61,38.84 107.66,133.11 147.44,173.21 54.41,54.85 105.43,107.26 160.75,161.3 51.47,50.27 93.13,13.33 96.76,-18.39 6.54,-57.06 -190.69,-195.15 -227.65,-263.32z"/>
   <path class="fil0" d="M176.91 1200.77l0.02 462.95c-0.02,187.81 109.76,326.17 244.8,379.19 95.35,37.43 168.01,31.01 278.54,31.01l935.96 0c207.2,0 420,-4.74 626.51,0.41 -12.44,23.19 -146.89,152.85 -182.66,189.24 -18.56,18.89 -47.36,36.2 -44.41,77.17 30.26,5.76 95.17,9.93 115.55,-6.23l251.07 -251.91c73.33,-73.61 40.58,-81.05 -89.26,-210.03l-188.82 -188.54c-28.94,-25.48 -69.18,-23.58 -84.77,10.15 -21.49,46.5 47.62,96.37 95.71,144.93 24.84,25.08 113.93,108.6 127.68,133.96 -499.02,0.17 -998.09,0.06 -1497.13,0.06 -119.72,0 -244.63,14.24 -336.44,-38.76 -71.46,-41.26 -137.98,-112.87 -149.96,-226.51 -10.73,-101.75 7.69,-519.2 -7.37,-551.9 -15.57,-33.83 -95,-54.92 -95,44.83z"/>
  </g>
 </g>
</svg>
