<?xml version="1.0" encoding="UTF-8"?>
<!DOCTYPE svg PUBLIC "-//W3C//DTD SVG 1.1//EN" "http://www.w3.org/Graphics/SVG/1.1/DTD/svg11.dtd">
<!-- Creator: CorelDRAW 2018 (64-Bit) -->
<svg xmlns="http://www.w3.org/2000/svg" xml:space="preserve" width="2.587in" height="2.587in" version="1.1" style="shape-rendering:geometricPrecision; text-rendering:geometricPrecision; image-rendering:optimizeQuality; fill-rule:evenodd; clip-rule:evenodd"
viewBox="0 0 2587 2587"
 xmlns:xlink="http://www.w3.org/1999/xlink">
 <defs>
  <style type="text/css">
   <![CDATA[
    .fil0 {fill:#242424}
   ]]>
  </style>
 </defs>
 <g id="Layer_x0020_1">
  <metadata id="CorelCorpID_0Corel-Layer"/>
  <g id="_2616380219696">
   <path class="fil0" d="M1682.9 1615.11c7.15,-8.81 11.52,-11.52 17.39,-17.83l190.04 426.22c-27.36,-2.16 -56.57,-6.34 -84.44,-9.76 -31.31,-3.84 -59.44,-13.86 -77.1,7.58 -17.69,21.48 -61.81,95.95 -77.72,107.33l-192.56 -430.06c32.94,-3.94 76.58,13.63 118.04,10.83 21.23,40.21 42.58,92.54 60.56,134.69 9.5,22.26 20.75,44.88 30.22,67.35 8.92,21.15 18,48.28 48.58,37.23 56.62,-20.45 -67.02,-195.96 -82.92,-266.39l49.91 -67.2zm-739.57 -16.32c15.87,8.93 69.11,86.02 69.15,87.28l-88.66 198.43c-10.7,22.6 -22.33,57.15 8.75,64.87 31.98,7.95 38.8,-23.96 48.69,-44.86 9.89,-20.89 19.52,-43.88 28.94,-65.02 19.46,-43.69 38.64,-85.13 58.75,-127.36l117.79 -14.43 -145.41 326.93c-8.56,18.09 -16.8,36.1 -24.47,54.25 -5.93,14.01 -15.9,41.41 -25.84,50.5l-76.29 -111c-20.28,-21.34 -123.82,1.75 -160.47,4.97l189.08 -424.55zm368.55 -1234.84c31.43,-8.74 82.75,39.69 113.57,51.43 53.95,20.54 119.06,-15.89 152.9,-2.77 14.84,5.75 30.51,32.4 40.4,46.08 76.89,106.38 104.23,55.48 166.7,92.12 32.64,19.14 29.05,89.48 47.72,125.06 20.21,38.52 61.03,52.72 92.1,80.48 36.22,32.37 -0.94,92.63 4.72,145.22 5.04,46.8 47.71,79.73 57.8,115.16 9.54,33.52 -39.09,84.28 -51.46,116.15 -20.89,53.8 16.21,116.64 2.52,152.65 -5.76,15.16 -30.79,30.7 -45.35,40.98 -106.89,75.45 -56.06,101.31 -92.63,166.3 -17.66,31.39 -88.87,28.72 -125.14,47.69 -35.14,18.39 -55.7,62.62 -80.19,92.37 -29.63,35.98 -94.93,-1.17 -145.57,4.59 -41.6,4.73 -88.53,49.96 -115.14,57.61 -33.46,9.62 -84.47,-39.17 -116.56,-51.53 -53.15,-20.49 -117.77,16.44 -152.7,2.61 -19.67,-7.78 -55.53,-72.09 -79.11,-93.52 -34.33,-31.21 -90.68,-24.04 -127.98,-44.63 -32.2,-17.78 -28.18,-89.24 -47.48,-125.45 -18.3,-34.31 -63.2,-55.19 -92.56,-79.87 -35.33,-29.69 1.7,-95.23 -4.28,-145.77 -4.78,-40.36 -50.06,-88.41 -57.66,-115.29 -9.5,-33.57 39.36,-83.61 51.7,-115.88 20.22,-52.87 -16.5,-119.54 -2.42,-152.48 9.97,-23.32 65.4,-48.96 92.89,-79.98 34.08,-38.47 23.7,-91.43 45.28,-127.17 19.31,-31.96 89.24,-28.31 125.11,-47.69 35.34,-19.1 54.74,-62.52 80.15,-92.37 30.91,-36.3 93.41,2.07 145.29,-4.56 47.7,-6.1 78.14,-46.66 117.36,-57.56zm-322.16 1858.86l19.66 0c25.39,-25.46 47.16,-82.06 62.66,-118.69 38.59,-91.18 143.62,-308.18 168.04,-376.42 28.4,10.33 40.28,30.1 82.07,30.09 41.57,-0.02 54.43,-19.76 83.15,-30.91l209.72 469.41c8.28,19.15 6.98,15.76 21.95,26.52l18.25 0c32.19,-26.16 79.16,-107.73 113.59,-151.32 74.8,-0.49 183.26,39.51 199.43,1.67 9,-21.05 -18.69,-66.63 -27.1,-86.42 -45.67,-107.49 -100.54,-219.57 -145.21,-323.94 -9.89,-23.1 -29.67,-60.12 -35.18,-81.83 15.33,-8.86 39.3,-10.99 55.34,-20.2 63.02,-36.19 48.25,-111.24 71.59,-149.89 30.72,-50.86 132.11,-48.38 111.34,-176.46 -10.92,-67.39 -17.46,-62.3 14.38,-114.46 17.83,-29.2 43.46,-61.39 35.46,-108.3 -5.76,-33.73 -34.64,-68.69 -50.27,-95.85 -20.63,-35.85 4.72,-85.16 4.21,-126.9 -1.2,-99.74 -104.57,-84.48 -125.43,-172.37 -27,-113.77 -36.5,-116.73 -148.98,-143.66 -27.8,-6.65 -32.65,-13.15 -45.3,-29.87 -10.78,-14.26 -18.65,-24.93 -30.35,-40.91 -79.62,-108.71 -157.35,-10.95 -219.52,-50.71 -64.74,-41.41 -49.35,-27.07 -94.91,-50.33l-32.36 0c-18.7,9.55 -30.41,10.45 -50.89,23.06 -18.1,11.14 -28.82,18.08 -46.26,28.74 -63.45,38.8 -136.02,-61.4 -218.85,51.41 -23.75,32.35 -32.52,58.53 -77.24,69.26 -115.36,27.69 -118.9,33.02 -147.28,149.04 -6.24,25.48 -11.3,32.99 -29.02,46.09 -14.15,10.46 -25.42,18.13 -41.45,29.95 -109.93,81.06 -10.34,153.42 -52.14,221.85 -57.86,94.72 -70.09,105.5 -9.08,204.13 30.88,49.92 20.12,53.7 10.45,116.26 -8.24,53.31 6.59,85.11 35.56,108.15 19.74,15.7 70.65,47.34 79.38,66.78 14.93,33.23 13.52,80.12 34.43,112.02 31.33,47.78 69.94,39.62 91.43,53.2l-143.88 323.6c-13.11,27.54 -74.35,145.7 -63.18,169.8 15,32.37 130.39,0.18 197.54,-3.36 29.55,27.06 78.86,124.13 114.23,151.8z"/>
   <path class="fil0" d="M1036.41 956.24c32.8,-5.06 71.3,-8.56 105.81,-12.65 121.07,-14.38 84.17,3.7 139.32,-108.89 11.28,-23.02 26.6,-66.73 40.61,-83.95 15.75,19.36 59.41,132.6 78.43,166.3 19.81,35.08 163.34,21.79 206.7,40.85l-131.75 123.35c-22.24,24.41 -3.24,72.02 2.96,103.09 7.18,35.97 16.4,73.5 21.02,109.52 -37.1,-11.02 -151.47,-92.31 -177.37,-92.31 -25.89,0 -140.27,81.29 -177.37,92.31 4.62,-36.03 13.84,-73.54 21.03,-109.52 17.93,-89.83 29.2,-81.39 -30.94,-133l-98.46 -95.09zm80.46 157.6c-11.22,106.06 -67.99,216.83 -2.85,243.78 51.14,21.15 179.54,-89.62 208.13,-89.62 26.18,0 156.58,108.01 205.47,90.75 69.16,-24.41 11.2,-137.09 -0.2,-244.91 23.84,-15.81 96.89,-89.49 121.98,-110.24 18.06,-14.93 42.8,-43.56 21.59,-79.09 -17.2,-28.82 -46.83,-27.33 -88.45,-32.3 -34.09,-4.06 -69.62,-8.72 -103.73,-12.2 -27.24,-2.78 -27.91,1.89 -38.68,-21.33l-55.29 -121.1c-13.06,-29.62 -23.94,-58.98 -62.69,-58.98 -37.81,0 -48.89,27.88 -61.53,56.35 -12.07,27.19 -23.89,53.42 -36.64,79.78 -38.07,78.74 2.4,57.62 -158.64,77.04 -38.46,4.64 -70.91,3.23 -89.02,28.22 -24.84,34.28 -3.15,65.54 16.39,82.03 21.43,18.09 39.93,37.1 61.12,55.37 19.03,16.41 36.64,38.94 63.05,56.45z"/>
   <path class="fil0" d="M1274.54 483.87c-107.67,10.8 -232.6,57.39 -308.96,128.8 -81.8,76.5 -153.6,164.81 -182.39,316.94 -27.74,146.57 7.23,272.03 67.75,379.44 10.67,18.94 36.98,60.47 52.15,64.87 19.35,5.62 59.13,-7.59 24.55,-59.08 -33.6,-50.04 -59.22,-92.28 -76.52,-159.83 -34.78,-135.76 -11.39,-274.8 53.87,-377.73 33.35,-52.6 64.27,-90.41 107.72,-125 97.9,-77.94 221.71,-120.9 354.87,-107.61 109.44,10.92 153.61,47.87 180.93,51.82 37.83,5.46 47.98,-40.86 15.98,-57.44 -82.65,-42.83 -195.24,-64.67 -289.95,-55.17z"/>
   <path class="fil0" d="M1771.59 768.53c-34.38,12.94 -10.13,53.82 -0.14,77.91 11.79,28.42 20.56,57.71 26.86,89.54 82.33,416.38 -375.51,726.39 -732.52,507.26 -12.54,-7.7 -21.57,-13.79 -33.64,-22.72 -45.5,-33.67 -64.02,8.86 -55.69,29.17 5.13,12.52 21.2,20.36 32.22,28.13 161.05,113.54 357.06,128.38 547.61,44.42 154.66,-68.15 271.52,-228.95 302.71,-395.22 13.21,-70.43 11.29,-145.71 -3.54,-214.37 -6.7,-31.04 -16.28,-60.99 -27.59,-88.85 -10.8,-26.61 -20.99,-68.55 -56.28,-55.26z"/>
   <path class="fil0" d="M1649.5 616.02c-38.75,19.85 -4.3,49.24 11.1,63.53 13.62,12.65 33.42,48.92 62.27,33.57 32.51,-17.29 7.14,-48 -8.52,-64.9 -11.61,-12.53 -38.49,-45.7 -64.86,-32.2z"/>
  </g>
 </g>
</svg>
