<?xml version="1.0" encoding="UTF-8"?>
<!DOCTYPE svg PUBLIC "-//W3C//DTD SVG 1.1//EN" "http://www.w3.org/Graphics/SVG/1.1/DTD/svg11.dtd">
<!-- Creator: CorelDRAW 2018 (64-Bit) -->
<svg xmlns="http://www.w3.org/2000/svg" xml:space="preserve" width="2.587in" height="2.587in" version="1.1" style="shape-rendering:geometricPrecision; text-rendering:geometricPrecision; image-rendering:optimizeQuality; fill-rule:evenodd; clip-rule:evenodd"
viewBox="0 0 2587 2587"
 xmlns:xlink="http://www.w3.org/1999/xlink">
 <defs>
  <style type="text/css">
   <![CDATA[
    .fil0 {fill:#373435}
   ]]>
  </style>
 </defs>
 <g id="Layer_x0020_1">
  <metadata id="CorelCorpID_0Corel-Layer"/>
  <g id="_2616420009824">
   <path class="fil0" d="M1810.4 1568.8c-5.89,-24.69 -5.78,-220.13 0.58,-243.94 20.66,-77.31 90.89,-72.16 176.21,-72.16 81.91,0 163.81,0.01 245.72,0 85.8,-0.01 153.63,-1.31 171.11,76.67 6.23,27.8 6.04,216.44 -1.19,242.66 -20.87,75.72 -93.07,71.87 -175.14,71.85 -81.91,-0.01 -163.81,-0.01 -245.72,0 -83.64,0 -153.76,-0.5 -171.56,-75.07zm455.44 144.89c0.63,85.33 11.07,321.42 -15.09,385.21 -18.14,44.24 -54.97,82.59 -97.15,101.7 -56.54,25.62 -120.93,18.54 -187.32,18.54l-1197.2 0c-118.37,0 -283.07,22.73 -360.68,-44.14 -92.22,-79.46 -71.72,-187.17 -71.72,-329.13l0 -799.88c0,-147.6 -21.54,-247.31 74.45,-326.61 76.89,-63.51 236.29,-42.46 352.72,-42.46l1202.43 0c61.39,0 127.7,-6.89 180.19,15.87 48.84,21.17 82.06,53.98 102.82,101.52 26.89,61.59 20.3,306.17 15.98,388.56 -69.19,1.07 -352.06,-4.7 -393.9,3.72 -54.2,10.9 -93.44,47.65 -113.32,84.91 -28.33,53.1 -20.55,111.26 -20.55,177.03 0,92.66 -12.26,230.14 134.06,261.13 42.35,8.96 324.71,2.75 394.29,4zm-1647.26 -1108.31c47.37,-14.9 1160.5,-201.8 1267.4,-220.42 90.46,-15.76 138.56,-15.2 189.19,39.84 47.4,51.51 57.64,99.72 58.24,187.67 -249.93,-8.9 -505.65,-5.25 -757.88,-5.25 -150.6,0 -646.94,7.34 -756.95,-1.84zm1717.59 1109.8c26.66,-18.06 55.74,-11.35 100.72,-62.61 27,-30.76 39.8,-66.38 39.78,-115.13 -0.04,-160.92 30.16,-314.27 -141.3,-352.08l0.13 -280.51c-0.14,-144.72 -42.81,-199.68 -132.04,-262.62 -3.07,-137.25 -9.74,-198.97 -86.84,-274.55 -80.33,-78.76 -148.48,-67.33 -272.56,-46.15l-1212.97 209.14c-206.39,35.82 -364.26,78.39 -364.28,348.04l0.02 1139.7c0,153.38 117.34,270.21 267.02,270.21l1531.8 0c126.43,0 218.12,-77.78 252.38,-169.44 33.81,-90.44 12.85,-293.3 18.17,-403.99z"/>
   <path class="fil0" d="M1945.16 1389.49c-83.22,35.37 -22.92,154.67 52.65,116.85 69.13,-34.59 29.2,-151.65 -52.65,-116.85z"/>
  </g>
 </g>
</svg>
